<?xml version="1.0" standalone="yes"?>
<svg xmlns="http://www.w3.org/2000/svg" width="922" height="922">
<path style="fill:#06285a; stroke:none;" d="M0 0L0 922L275 922C268.651 919.336 259.833 921.26 253 920.961C238.033 920.305 222.925 919.275 208 917.83C150.077 912.225 87.099 898.117 49.2106 850C5.68836 794.728 4.88551 718.795 1.96065 652C-1.38487 575.598 1 498.53 1 422C1 350.786 -1.68729 278.858 5.16975 208C11.5847 141.711 30.1289 71.8389 92 36.4275C123.068 18.6462 158.812 11.0555 194 6.84491C236.806 1.72272 279.897 1 323 1L546 1C589.448 1 633.776 -1.28326 677 2.83026C689.61 4.03033 702.362 3.94672 715 5.16974C763.843 9.8963 816.853 20.1001 855 53.2894C904.459 96.321 914.853 165.203 919.089 227C920.189 243.034 921 258.89 921 275C923.903 268.081 922 257.48 922 250L922 194L922 0L0 0z"/>
<path style="fill:#f8fbfc; stroke:none;" d="M275 1.42438C267.355 2.4281 259.682 1.703 252 2.03937C241.02 2.52014 229.974 3.33728 219 4.08948C160.478 8.10101 93.7167 20.5344 53.2894 67C6.51031 120.766 3.63881 201.507 1.98534 269C0.0527431 347.886 1 427.023 1 506C1 563.563 -1.01809 621.632 2.91049 679C7.07645 739.835 11.0532 809.093 54.1705 857C102.069 910.22 177.391 915.528 244 920.089C279.9 922.548 315.963 922 352 922L498 922C581.203 922 665.536 925.876 748 913.728C792.45 907.18 838.088 891.157 868.829 857C903.745 818.205 914.395 761.395 918.089 711C924.585 622.373 922 532.96 922 444L922 315C922 271.627 921.109 228.005 915.13 185C909.958 147.789 900.607 110.33 878.974 79C844.814 29.5259 785.299 14.0344 729 6.71838C684.675 0.958435 639.665 1 595 1L459 1L337 1C316.76 1 295.065 -1.21014 275 1.42438z"/>
<path style="fill:#06285a; stroke:none;" d="M669 285L667 285C663.343 277.95 656.601 272.538 651 267.004C635.91 252.093 618.16 239.295 600 228.4C511.873 175.525 398.472 176.221 311 229.811C223.82 283.222 169.97 383.356 182.285 486C186.485 521.005 199.24 551.386 214 583C204.599 578.603 194.779 574.945 186 569.302C161.164 553.337 140.364 526.996 141.129 496C141.538 479.432 147.544 465.587 152 450C144.34 458.815 139.356 471.03 135.667 482C131.692 493.82 128.381 507.429 129.093 520C130.521 545.209 145.723 563.421 166 576.999C195.581 596.807 232.691 606.492 268 608.911C340.065 613.846 412.406 596.749 480 572.692C551.353 547.297 620.034 514.265 682 470.424C716.25 446.193 750.572 419.354 773.996 384C782.811 370.696 791.37 355.684 795 340C790.572 345.851 788.242 353.589 784.573 360C778.193 371.146 770.185 381.379 761.714 391C724.36 433.429 671.883 465.399 620 487C631.59 478.58 644.236 471.501 656 463.28C680.654 446.051 703.732 427.268 725 406C738.671 392.329 753.639 376.674 762 359C756.524 363.43 752.197 369.67 747.576 375C741.343 382.188 734.719 389.262 728 396C722.964 378.252 716.264 360.358 707.68 344C702.386 333.911 695.402 324.517 691 314C698.027 311.893 704.862 306.056 711 302C713.612 300.274 716.631 297.466 720 298.125C723.509 298.811 727.005 301.96 730 303.806C738.11 308.802 746.074 314.05 754 319.333C758.839 322.559 764.695 327.815 770.982 325.37C776.13 323.368 776.426 317.692 775.569 313C773.482 301.561 769.615 290.128 766.292 279C765.162 275.218 764.24 266.576 760 266C765.504 256.675 776.851 246.723 786 241C780.944 247.224 774.611 252.455 770 259C775.828 255.632 780.747 250.797 786 246.6C789.937 243.455 793.94 240.413 797.996 237.424C804.938 232.308 810.271 220.977 797.999 218.189C785.507 215.351 771.748 215.79 759 214.286C754.573 213.763 749.119 214.725 745.225 212.062C741.849 209.754 740.5 204.609 739.011 201C735.565 192.651 731.936 184.397 728.601 176C726.366 170.371 724.43 163.125 716.999 163.214C710.238 163.295 708.217 169.77 706.189 175L695.189 203C693.845 206.468 692.639 211.805 688.867 213.397C685.976 214.617 682.09 214.019 679 214.424C668.056 215.861 656.941 215.983 646 217.424C640.183 218.191 632.558 217.954 630.696 225.015C628.184 234.545 644.859 243.199 651 247.884C656.374 251.984 661.672 256.189 666.999 260.349C669.301 262.147 672.376 263.993 673.096 267.039C674.359 272.377 670.2 279.813 669 285z"/>
<path style="fill:#f6cc07; stroke:none;" d="M720 163L721 164L720 163M722 164L723 165L722 164M710 165L711 166L710 165M724 166L725 167L724 166M707 171L708 172L707 171M727 173L728 174L727 173M706 174L707 175L706 174M729 178L730 179L729 178M704 179L705 180L704 179M716.667 179.333C716.222 179.778 717.278 179.722 717.333 179.667C717.778 179.222 716.722 179.278 716.667 179.333z"/>
<path style="fill:#f8fbfc; stroke:none;" d="M716 180C713.015 190.913 707.802 201.496 703.6 212C702.137 215.658 700.929 221.603 697.582 224.012C693.181 227.178 686.052 225.744 681 226.089C669.372 226.886 657.652 228.76 646 229C650.188 231.421 657.154 230 662 230C675.36 230 688.611 229 702 229C703.283 214.776 713.573 202.234 715 188C719.318 190.324 720.121 194.712 722.07 199C726.288 208.277 731.185 218.226 734 228C741.723 228.976 749.244 228.7 757 229.039C765.857 229.427 774.145 230.644 783 229C779.82 227.665 776.412 228.117 773 227.714C764.682 226.732 756.318 226.267 748 225.286C744.44 224.865 739.41 225.928 736.499 223.397C733.969 221.196 733.002 216.983 731.719 214C728.445 206.385 725.309 198.685 722.201 191C720.631 187.12 719.443 182.524 716 180z"/>
<path style="fill:#f6cc07; stroke:none;" d="M730 180L731 181L730 180M703 181L704 182L703 181M715 182L716 183L715 182M718 182L719 183L718 182M731 183L732 184L731 183M702 184L703 185L702 184M714 184L715 185L714 184M719 184L720 185L719 184M732 185L733 186L732 185M720 186L721 187L720 186M713 187L714 188L713 187M715 188C712.601 201.944 702.66 214.808 702 229L648 230C650.353 234.825 654.825 237.433 659 240.651C664.751 245.084 670.154 249.956 676 254.265C680.572 257.636 685.386 260.297 687 266L686 264C685.365 265.83 685.036 267.368 684 269L685 273L683 272L684 277L683 275C681.518 276.482 682.956 277.61 682 280L681 279C681.036 281.079 681.056 281.276 680 283L681 287L679 286C678.281 294.735 674.659 304.616 672 313C683.259 308.733 693.906 299.9 704 293.343C707.845 290.846 713.328 285.908 718 285.481C722.493 285.071 727.396 289.609 731 291.797C741.767 298.334 751.997 305.874 763 312C761.591 294.748 754.336 276.752 750 260C755.695 257.592 760.206 253.277 765 249.449C773.228 242.88 781.594 236.335 790 230C784.668 226.827 778.827 229.925 773 229.996C760.099 230.154 746.855 229.015 734 228C732.224 218.034 726.271 207.237 722.07 198C720.209 193.906 719.57 189.48 715 188M733 188L734 189L733 188M435 189C437.052 189.874 438.747 189.953 441 190C438.948 189.126 437.253 189.047 435 189M474 189C475.248 189.685 475.548 189.749 477 190C475.752 189.315 475.452 189.251 474 189M700 189L701 190L700 189M712 189L713 190L712 189M721 189L722 190L721 189M484 190C485.506 190.683 486.315 190.826 488 191C486.494 190.317 485.685 190.174 484 190M734 190L735 191L734 190M416.667 191.333C416.222 191.778 417.278 191.722 417.333 191.667C417.778 191.222 416.722 191.278 416.667 191.333M493 191C494.248 191.685 494.548 191.749 496 192C494.752 191.315 494.452 191.251 493 191M722 191L723 192L722 191M408 192C409.248 192.685 409.548 192.749 411 193C409.752 192.315 409.452 192.251 408 192M500.667 192.333C500.222 192.778 501.278 192.722 501.333 192.667C501.778 192.222 500.722 192.278 500.667 192.333M711 192L712 193L711 192M735 192L736 193L735 192M404.667 193.333C404.222 193.778 405.278 193.722 405.333 193.667C405.778 193.222 404.722 193.278 404.667 193.333M723.333 193.667C723.278 193.722 723.222 194.778 723.667 194.333C723.722 194.278 723.778 193.222 723.333 193.667M397.667 194.333C397.222 194.778 398.278 194.722 398.333 194.667C398.778 194.222 397.722 194.278 397.667 194.333M698 194L699 195L698 194M710 194L711 195L710 194M393 195L394 196L393 195M521 196L522 197L521 196M724 196L725 197L724 196M385 197L386 198L385 197M525 197L526 198L525 197M709 197L710 198L709 197M737 197L738 198L737 197M382 198L383 199L382 198M529 198L530 199L529 198M725 198L726 199L725 198M378 199L379 200L378 199M532 199L533 200L532 199M696 199L697 200L696 199M708 199L709 200L708 199M375 200L376 201L375 200M536 200L537 201L536 200M372 201L373 202L372 201M539 201L540 202L539 201M726 201L727 202L726 201M369 202L370 203L369 202M542 202L543 203L542 202M695 202L696 203L695 202M707 202L708 203L707 202M739 202L740 203L739 202M366 203L367 204L366 203M442 203C443.506 203.683 444.315 203.826 446 204C444.494 203.317 443.685 203.174 442 203z"/>
<path style="fill:#f8fbfc; stroke:none;" d="M289 371C297.248 358.576 301.407 342.998 309.012 330C324.11 304.194 342.183 280.475 362.961 259.004C387.708 233.431 413.943 213.973 450 209.289C479.567 205.449 508.125 215.271 537 219C524.717 211.271 506.118 209.106 492 206.753C474.187 203.784 454.908 200.842 437 204.669C420.907 208.108 405.801 216.294 392 224.95C355.564 247.802 325.965 282.67 306.753 321C299.098 336.274 291.503 353.989 289 371z"/>
<path style="fill:#f6cc07; stroke:none;" d="M464 203C466.613 204.098 469.165 203.993 472 204C469.387 202.902 466.836 203.007 464 203M545 203L546 204L545 203M727 203L728 204L727 203M363 204L364 205L363 204M436.667 204.333C436.222 204.778 437.278 204.722 437.333 204.667C437.778 204.222 436.722 204.278 436.667 204.333M477.667 204.333C477.222 204.778 478.278 204.722 478.333 204.667C478.778 204.222 477.722 204.278 477.667 204.333M548 204L549 205L548 204M706 204L707 205L706 204M740 204L741 205L740 204M361 205L362 206L361 205M433 205L434 206L433 205M484 205C485.248 205.685 485.548 205.749 487 206C485.752 205.315 485.452 205.251 484 205M358 206L359 207L358 206M430 206L431 207L430 206M490 206C491.248 206.685 491.549 206.749 493 207C491.752 206.315 491.452 206.251 490 206M553 206L554 207L553 206M728 206L729 207L728 206M427 207L428 208L427 207M496 207C497.248 207.685 497.548 207.749 499 208C497.752 207.315 497.452 207.251 496 207M556 207L557 208L556 207M693 207L694 208L693 207M705 207L706 208L705 207M353 208L354 209L353 208M424 208L425 209L424 208M502 208C503.248 208.685 503.548 208.749 505 209C503.752 208.315 503.451 208.251 502 208M729 208L730 209L729 208M350 209L351 210L350 209M421 209L422 210L421 209M345 405C351.84 387.269 358.231 369.782 367.309 353C394.267 303.16 434.444 260.381 487 237.719C506.134 229.469 528.013 223.058 549 223C546.787 221.607 545.609 221.626 543 222C542.256 216.993 527.432 217.49 523 216.528C500.179 211.571 478.401 208.955 455 209C422.11 209.063 393.718 227.896 371.019 249.94C349.05 271.274 330.039 294.958 313.954 321C306.062 333.776 299.201 347.266 293.134 361C291.583 364.513 287.126 371.898 288.5 375.722C290.062 380.07 298.242 383.408 302 385.588C315.596 393.477 330.02 400.163 345 405M506 209C507.248 209.685 507.549 209.749 509 210C507.752 209.315 507.452 209.251 506 209M561 209L562 210L561 209M704 209L705 210L704 209M742 209L743 210L742 209M348 210L349 211L348 210M419 210L420 211L419 210M510.667 210.333C510.222 210.778 511.278 210.722 511.333 210.667C511.778 210.222 510.722 210.278 510.667 210.333M564 210L565 211L564 210M346 211L347 212L346 211M398.667 211.333C398.222 211.778 399.278 211.722 399.333 211.667C399.778 211.222 398.722 211.278 398.667 211.333M416 211L417 212L416 211M514.667 211.333C514.222 211.778 515.278 211.722 515.333 211.667C515.778 211.222 514.722 211.278 514.667 211.333M566 211L567 212L566 211M730 211L731 212L730 211z"/>
<path style="fill:#f8fbfc; stroke:none;" d="M245 318C254.823 309.022 261.201 296.331 271.004 287.089C299.757 259.983 332.28 238.489 369 223.8C378.464 220.014 388.065 215.354 398 213C393.809 211.501 389.145 213.68 385 214.86C375.155 217.662 365.45 221.082 356 225.012C323.563 238.5 293.793 259.327 269.91 285C261.125 294.444 249.011 305.412 245 318z"/>
<path style="fill:#f6cc07; stroke:none;" d="M414 212L415 213L414 212M518.667 212.333C518.222 212.778 519.278 212.722 519.333 212.667C519.778 212.222 518.722 212.278 518.667 212.333M691 212L692 213L691 212M703 212L704 213L703 212M341 213L342 214L341 213M412 213L413 214L412 213M522 213L523 214L522 213M571 213L572 214L571 213M687 213C688.506 213.683 689.315 213.826 691 214C689.494 213.317 688.685 213.174 687 213M731 213L732 214L731 213M748 213C749.506 213.683 750.315 213.826 752 214C750.494 213.317 749.685 213.174 748 213M339 214L340 215L339 214M386 214L387 215L386 214M392 214L393 215L392 214M410 214L411 215L410 214M525 214L526 215L525 214M573 214L574 215L573 214M677.667 214.333C677.222 214.778 678.278 214.722 678.333 214.667C678.778 214.222 677.722 214.278 677.667 214.333M702 214L703 215L702 214M760.667 214.333C760.222 214.778 761.278 214.722 761.333 214.667C761.778 214.222 760.722 214.278 760.667 214.333M337 215L338 216L337 215M382 215L383 216L382 215M408 215L409 216L408 215M528 215L529 216L528 215M575 215L576 216L575 215M665 215C666.248 215.685 666.548 215.749 668 216C666.752 215.315 666.452 215.251 665 215M732 215L733 216L732 215M770 215C771.248 215.685 771.549 215.749 773 216C771.752 215.315 771.452 215.251 770 215M335 216L336 217L335 216M379 216L380 217L379 216M406 216L407 217L406 216M531.667 216.333C531.222 216.778 532.278 216.722 532.333 216.667C532.778 216.222 531.722 216.278 531.667 216.333M577 216L578 217L577 216M654 216C655.248 216.685 655.548 216.749 657 217C655.752 216.315 655.452 216.251 654 216M780.667 216.333C780.222 216.778 781.278 216.722 781.333 216.667C781.778 216.222 780.722 216.278 780.667 216.333M333 217L334 218L333 217M376 217L377 218L376 217M384 217L385 218L384 217M404 217L405 218L404 217M534.667 217.333C534.222 217.778 535.278 217.722 535.333 217.667C535.778 217.222 534.722 217.278 534.667 217.333M641 217C642.769 217.779 644.036 217.912 646 218C644.231 217.221 642.964 217.088 641 217M701 217L702 218L701 217M331 218L332 219L331 218M373 218L374 219L373 218M581 218L582 219L581 218M636 218L637 219L636 218M733 218L734 219L733 218M329 219L330 220L329 219M370 219L371 220L370 219M379 219L380 220L379 219M583 219L584 220L583 219M634 219L635 220L634 219M700 219L701 220L700 219M327 220L328 221L327 220M367 220L368 221L367 220M399 220L400 221L399 220M585 220L586 221L585 220M734 220L735 221L734 220M397 221L398 222L397 221z"/>
<path style="fill:#f8fbfc; stroke:none;" d="M543.667 221.333C543.222 221.778 544.278 221.722 544.333 221.667C544.778 221.222 543.722 221.278 543.667 221.333z"/>
<path style="fill:#f6cc07; stroke:none;" d="M587 221L588 222L587 221M362 222L363 223L362 222M631 222L632 223L631 222M699 222L700 223L699 222M369.667 223.333C369.222 223.778 370.278 223.722 370.333 223.667C370.778 223.222 369.722 223.278 369.667 223.333M394 223L395 224L394 223M735 223L736 224L735 223M320 224L321 225L320 224M357 224L358 225L357 224M698 224L699 225L698 224M736 224C737.769 224.779 739.036 224.912 741 225C739.231 224.221 737.964 224.088 736 224M318 225L319 226L318 225M391 225L392 226L391 225M688 225C690.052 225.874 691.747 225.953 694 226C691.948 225.126 690.253 225.047 688 225M749 225C750.769 225.779 752.036 225.912 754 226C752.231 225.221 750.964 225.088 749 225M389 226L390 227L389 226M596 226L597 227L596 226M675 226C676.248 226.685 676.548 226.749 678 227C676.752 226.315 676.452 226.251 675 226M760 226C761.248 226.685 761.548 226.749 763 227C761.752 226.315 761.452 226.251 760 226M350 227L351 228L350 227M359.667 227.333C359.222 227.778 360.278 227.722 360.333 227.667C360.778 227.222 359.722 227.278 359.667 227.333M598 227L599 228L598 227M662.667 227.333C662.222 227.778 663.278 227.722 663.333 227.667C663.778 227.222 662.722 227.278 662.667 227.333M771 227C772.769 227.779 774.036 227.912 776 228C774.231 227.221 772.964 227.088 771 227M313 228L314 229L313 228M348 228L349 229L348 228M386 228L387 229L386 228M648 228C649.769 228.779 651.036 228.912 653 229C651.231 228.221 649.964 228.088 648 228M601 229L602 230L601 229M630 229L631 230L630 229M645 229L646 230L645 229M383 230L384 231L383 230M646 230L647 231L646 230M308 231L309 232L308 231M631 231L632 232L631 231M804 231L805 232L804 231M544 232C545.769 232.779 547.036 232.912 549 233C547.231 232.221 545.964 232.088 544 232z"/>
<path style="fill:#f8fbfc; stroke:none;" d="M357 409C378.918 414.025 399.506 418.549 422 420.09C428.856 420.559 438.322 422.961 444.961 420.397C451.26 417.964 455.94 408.105 460.004 403C469.828 390.659 480.452 378.846 492 368.089C535.93 327.168 600.723 294.146 662 310C661.775 303.073 657.471 298.981 653.05 294C647.867 288.16 642.651 282.443 637 277.039C623.089 263.738 606.791 251.508 590 242.14C583.704 238.627 577.103 234.311 570 232.681C558.461 230.032 544.552 232.504 533 234.17C466.932 243.694 413.674 291.922 381.579 348C371.442 365.71 358.803 388.323 357 409z"/>
<path style="fill:#f6cc07; stroke:none;" d="M606 232L607 233L606 232M305 233L306 234L305 233M338 233L339 234L338 233M346.667 233.333C346.222 233.778 347.278 233.722 347.333 233.667C347.778 233.222 346.722 233.278 346.667 233.333M379 233L380 234L379 233M537.667 233.333C537.222 233.778 538.278 233.722 538.333 233.667C538.778 233.222 537.722 233.278 537.667 233.333M573 233L574 234L573 233M336 234L337 235L336 234M378 234L379 235L378 234M575 234L576 235L575 234M609 234L610 235L609 234M302 235L303 236L302 235M334 235L335 236L334 235M525 235C526.248 235.685 526.548 235.749 528 236C526.751 235.315 526.452 235.251 525 235M577 235L578 236L577 235M635 235L636 236L635 235M800 235L801 236L800 235M332 236L333 237L332 236M521 236L522 237L521 236M579 236L580 237L579 236M612 236L613 237L612 236M647 236C651.185 243.234 660.462 248.209 667 253.235C670.887 256.224 674.216 259.67 679 261C676.774 256.929 672.644 254.466 669 251.651C662.336 246.502 655.208 238.236 647 236M299 237L300 238L299 237M374 237L375 238L374 237M517 237L518 238L517 237M581 237L582 238L581 237M797 237L798 238L797 237M373 238L374 239L373 238M514 238L515 239L514 238M583 238L584 239L583 238M615 238L616 239L615 238M296 239L297 240L296 239M327 239L328 240L327 239M510 239L511 240L510 239M640 239L641 240L640 239M507 240L508 241L507 240M641 240L642 241L641 240M793 240L794 241L793 240M293 241L294 242L293 241M369 241L370 242L369 241M504 241L505 242L504 241M588 241L589 242L588 241M619 241L620 242L619 241M783 243C785.092 242.594 785.02 242.783 786 241C784.42 241.684 784.223 241.805 783 243M322 242L323 243L322 242M368 242L369 243L368 242M501 242L502 243L501 242M590 242L591 243L590 242M498 243L499 244L498 243M592 243L593 244L592 243M622 243L623 244L622 243M645 243L646 244L645 243M789 243L790 244L789 243M289 244L290 245L289 244M780 244L781 245L780 244M788 244L789 245L788 244M317 245L318 246L317 245M493 245L494 246L493 245M363 246L364 247L363 246M597 246L598 247L597 246M626 246L627 247L626 246M649 246L650 247L649 246M781 246L782 247L781 246M285 247L286 248L285 247M314 247L315 248L314 247M362 247L363 248L362 247M488 247L489 248L488 247M777 247L778 248L777 247M780 247L781 248L780 247M784 247L785 248L784 247M361 248L362 249L361 248M486 248L487 249L486 248M600 248L601 249L600 248M776 248L777 249L776 248M779 248L780 249L779 248M783 248L784 249L783 248M311 249L312 250L311 249M360 249L361 250L360 249M484 249L485 250L484 249M630 249L631 250L630 249M653 249L654 250L653 249M775 249L776 250L775 249M359 250L360 251L359 250M603 250L604 251L603 250M774 250L775 251L774 250M280 251L281 252L280 251M358 251L359 252L358 251M773 251L774 252L773 251M779 251L780 252L779 251M279 252L280 253L279 252M357 252L358 253L357 252M772 252L773 253L772 252M356 253L357 254L356 253M607 253L608 254L607 253M635 253L636 254L635 253M658 253L659 254L658 253M771 253L772 254L771 253M304 254L305 255L304 254M355 254L356 255L355 254M636 254L637 255L636 254M770 254L771 255L770 254M354 255L355 256L354 255M472 255L473 256L472 255M637 255L638 256L637 255M274 256L275 257L274 256M470 256L471 257L470 256M611 256L612 257L611 256M662 256L663 257L662 256M273 257L274 258L273 257M300 257L301 258L300 257M663 257L664 258L663 257M772 257L773 258L772 257M350 259L351 260L350 259M615 259L616 260L615 259M642 259L643 260L642 259M766 262C767.949 261.064 768.55 260.608 770 259C768.052 259.936 767.45 260.392 766 262M296 260L297 261L296 260M349 260L350 261L349 260M463 260L464 261L463 260M643 260L644 261L643 260M667 260L668 261L667 260M763 260L764 261L763 260M348 261L349 262L348 261M762 261L763 262L762 261M267 262L268 263L267 262M347 262L348 263L347 262z"/>
<path style="fill:#f8fbfc; stroke:none;" d="M686 262L686 266C686.71 264.241 686.71 263.759 686 262z"/>
<path style="fill:#f6cc07; stroke:none;" d="M266 263L267 264L266 263M346 263L347 264L346 263M458 263L459 264L458 263M620 263L621 264L620 263M671 263L672 264L671 263z"/>
<path style="fill:#06285a; stroke:none;" d="M786 268C789.956 269.617 792.973 267.141 797.015 267.143C804.924 267.148 813.429 270.13 820 274.387C847.3 292.076 839.437 330.937 828.664 356C826.027 362.133 822.815 367.969 820 374C820.059 370.041 820.059 367.756 817 365C814.654 367.792 812.375 369.505 810 366C802.696 374.377 797.148 384.957 790.575 394C781.351 406.69 770.184 418.977 758.961 429.91C716.126 471.639 665.366 503.984 613 532.309C560.516 560.697 505.172 584.122 448 601.202C411.336 612.155 374.196 621.178 336 624.83C279.072 630.273 216.095 626.35 165 598.306C128.892 578.487 103.93 541.343 112.449 499C116.57 478.517 126.513 459.017 138.438 442C144.794 432.932 152.672 424.992 159 416C145.522 422.88 134.28 436.212 123.961 447C90.5888 481.887 53.6253 534.221 70.3588 585C83.4623 624.763 126.375 648.028 165 656C156.372 656.925 146.61 654.414 138 653.282C102.207 648.575 62.7377 632.976 43.8727 600C35.4203 585.225 34 569.651 34 553C29.6469 562.055 29.5153 575.254 30.8696 585C34.0212 607.681 41.6044 626.403 58.0039 643C100.623 686.132 167.179 701 226 701C357.97 701 482.329 652.171 599 594.248C660.065 563.931 721.901 531.477 774 486.869C815.868 451.02 859.053 402.547 864.829 345C866.07 332.642 866.768 319.133 863.406 307C856.747 282.973 836.702 263.644 811 263.015C802.073 262.796 794.368 265.174 786 268z"/>
<path style="fill:#f6cc07; stroke:none;" d="M816.667 263.333C816.222 263.778 817.278 263.722 817.333 263.667C817.778 263.222 816.722 263.278 816.667 263.333M265 264L266 265L265 264M345 264L346 265L345 264M760.333 264.667C760.278 264.722 760.222 265.778 760.667 265.333C760.722 265.278 760.778 264.222 760.333 264.667M796.667 264.333C796.222 264.778 797.278 264.722 797.333 264.667C797.778 264.222 796.722 264.278 796.667 264.333M821.667 264.333C821.222 264.778 822.278 264.722 822.333 264.667C822.778 264.222 821.722 264.278 821.667 264.333M264 265L265 266L264 265M290 265L291 266L290 265M762.333 265.667C762.278 265.722 762.222 266.778 762.667 266.333C762.722 266.278 762.778 265.222 762.333 265.667M263 266L264 267L263 266M454 266L455 267L454 266z"/>
<path style="fill:#f8fbfc; stroke:none;" d="M685 266L685 269C685.696 267.446 685.696 267.554 685 266z"/>
<path style="fill:#f6cc07; stroke:none;" d="M790 266L791 267L790 266M828 266L829 267L828 266M262 267L263 268L262 267M625 267L626 268L625 267M261 268L262 269L261 268M291 268L292 269L291 268M451 268L452 269L451 268M673 268L674 269L673 268M260 269L261 270L260 269M763 269L764 270L763 269M259 270L260 271L259 270M340 270L341 271L340 270M448 270L449 271L448 270M836 270L837 271L836 270M258 271L259 272L258 271M283 271L284 272L283 271M339 271L340 272L339 271M630 271L631 272L630 271z"/>
<path style="fill:#f8fbfc; stroke:none;" d="M684.333 271.667C684.278 271.722 684.222 272.778 684.667 272.333C684.722 272.278 684.778 271.222 684.333 271.667z"/>
<path style="fill:#f6cc07; stroke:none;" d="M257 272L258 273L257 272M282 272L283 273L282 272M338 272L339 273L338 272M631 272L632 273L631 272M672 272L673 273L672 272M839 272L840 273L839 272M256 273L257 274L256 273M281 273L282 274L281 273M444 273L445 274L444 273M764 273L765 274L764 273M255 274L256 275L255 274M280 274L281 275L280 274z"/>
<path style="fill:#f8fbfc; stroke:none;" d="M683 274L683 277C683.696 275.446 683.696 275.554 683 274z"/>
<path style="fill:#f6cc07; stroke:none;" d="M842 274L843 275L842 274M254 275L255 276L254 275M279 275L280 276L279 275M843 275L844 276L843 275M253 276L254 277L253 276M335 276L336 277L335 276M671 276L672 277L671 276M765 276L766 277L765 276M252 277L253 278L252 277M439 277L440 278L439 277z"/>
<path style="fill:#f8fbfc; stroke:none;" d="M682 277L682 280C682.696 278.446 682.696 278.554 682 277z"/>
<path style="fill:#f6cc07; stroke:none;" d="M251 278L252 279L251 278M438 278L439 279L438 278M250 279L251 280L250 279M670 279L671 280L670 279M766 279L767 280L766 279M332 280L333 281L332 280z"/>
<path style="fill:#f8fbfc; stroke:none;" d="M681 280L681 283C681.696 281.446 681.696 281.554 681 280z"/>
<path style="fill:#f6cc07; stroke:none;" d="M331 281L332 282L331 281M272 282L273 283L272 282M669 282L670 283L669 282M271 283L272 284L271 283M666 283L667 284L666 283M767 283L768 284L767 283M851 283L852 284L851 283M270 284L271 285L270 284M273 284L274 285L273 284M329 284L330 285L329 284M667 284L668 285L667 284M245 285L246 286L245 285M269 285L270 286L269 285M272 285L273 286L272 285M328 285L329 286L328 285M430 285L431 286L430 285z"/>
<path style="fill:#f8fbfc; stroke:none;" d="M680.333 285.667C680.278 285.722 680.222 286.778 680.667 286.333C680.722 286.278 680.778 285.222 680.333 285.667z"/>
<path style="fill:#f6cc07; stroke:none;" d="M244 286L245 287L244 286M268 286L269 287L268 286M271 286L272 287L271 286M429 286L430 287L429 286M267 287L268 288L267 287M270 287L271 288L270 287M674 287L675 291C675.751 288.953 675.656 288.404 674 287z"/>
<path style="fill:#f8fbfc; stroke:none;" d="M679.333 287.667C679.278 287.722 679.222 288.778 679.667 288.333C679.722 288.278 679.778 287.222 679.333 287.667z"/>
<path style="fill:#f6cc07; stroke:none;" d="M768 287L769 288L768 287M854 287L855 288L854 287M269 288L270 289L269 288M326 288L327 289L326 288z"/>
<path style="fill:#f8fbfc; stroke:none;" d="M674 288C671.033 295.65 665.736 305.744 668 314L670 314C671.619 309.676 671.596 305.455 672.515 301C673.414 296.638 675.696 292.347 674 288z"/>
<path style="fill:#f6cc07; stroke:none;" d="M268 289L269 290L268 289M673 289L674 290L673 289M267 290L268 291L267 290M769 290L770 291L769 290M266 291L267 292L266 291M324 291L325 292L324 291M650 291L651 292L650 291M672 291L673 292L672 291M239 292L240 293L239 292M265 292L266 293L265 292M323 292L324 293L323 292M651 292L652 293L651 292M857 292L858 293L857 292M652 293L653 294L652 293M674.333 293.667C674.278 293.722 674.222 294.778 674.667 294.333C674.722 294.278 674.778 293.222 674.333 293.667M770 293L771 294L770 293M261 294L262 295L261 294M322 294L323 295L322 294M653 294L654 295L653 294M671 294L672 295L671 294M858 294L859 295L858 294M321 295L322 296L321 295M420 295L421 296L420 295M419 296L420 297L419 296M670 296L671 297L670 296M859 296L860 297L859 296M235 297L236 298L235 297M320 297L321 298L320 297M418 297L419 298L418 297M717 297L718 298L717 297M771 297L772 298L771 297M260 298L261 299L260 298M319 298L320 299L319 298M417 298L418 299L417 298M657 299L658 300L657 299M669.333 299.667C669.278 299.722 669.222 300.778 669.667 300.333C669.722 300.278 669.778 299.222 669.333 299.667M714 299L715 300L714 299M723 299L724 300L723 299M256 300L257 301L256 300M318 300L319 301L318 300M658 300L659 301L658 300M672.333 300.667C672.278 300.722 672.222 301.778 672.667 301.333C672.722 301.278 672.778 300.222 672.333 300.667M772 300L773 301L772 300M232 301L233 302L232 301M255 301L256 302L255 301M711 301L712 302L711 301M726 301L727 302L726 301M861 301L862 302L861 301M316 303L317 304L316 303M668.333 303.667C668.278 303.722 668.222 304.778 668.667 304.333C668.722 304.278 668.778 303.222 668.333 303.667M708 303L709 304L708 303M255 304L256 305L255 304M731 304L732 305L731 304M773 304L774 305L773 304M862 304L863 305L862 304M229 305L230 306L229 305M252 305L253 306L252 305M315 305L316 306L315 305M662.333 305.667C662.278 305.722 662.222 306.778 662.667 306.333C662.722 306.278 662.778 305.222 662.333 305.667M705 305L706 306L705 305M410 306L411 307L410 306M619 306C621.332 306.985 623.457 306.981 626 307C623.669 306.015 621.543 306.019 619 306M636 306C638.332 306.985 640.457 306.981 643 307C640.668 306.015 638.543 306.019 636 306M703 306L704 307L703 306M734 306L735 307L734 306M409 307L410 308L409 307M608 307C609.248 307.685 609.548 307.749 611 308C609.752 307.315 609.452 307.251 608 307M648.667 307.333C648.222 307.778 649.278 307.722 649.333 307.667C649.778 307.222 648.722 307.278 648.667 307.333M227 308L228 309L227 308M313 308L314 309L313 308M602 308C603.248 308.685 603.548 308.749 605 309C603.752 308.315 603.452 308.251 602 308M654.667 308.333C654.222 308.778 655.278 308.722 655.333 308.667C655.778 308.222 654.722 308.278 654.667 308.333M700 308L701 309L700 308M774 308L775 309L774 308M660 309L661 310L660 309M671.333 309.667C671.278 309.722 671.222 310.778 671.667 310.333C671.722 310.278 671.778 309.222 671.333 309.667M312 310L313 311L312 310M697 310L698 311L697 310M740 310L741 311L740 310M590 311L591 312L590 311M742 311L743 312L742 311M224 312L225 313L224 312M247 312L248 313L247 312M249 312L250 313L249 312M311 312L312 313L311 312M405 312L406 313L405 312M586 312L587 313L586 312M775 312L776 313L775 312M583 313L584 314L583 313M667 313L668 314L667 313M670 313L671 314L670 313M745 313L746 314L745 313M580 314L581 315L580 314M691 314L692 315L691 314M577 315L578 316L577 315M748 315L749 316L748 315M776 315L776 320C776.83 317.97 776.83 317.03 776 315M402 316L403 317L402 316M574 316L575 317L574 316M662 316L662 319L664 318C663.455 316.365 663.635 316.545 662 316M221 317L222 318L221 317M308 317L309 318L308 317M751 317L752 318L751 317M865 317L865 324C866.059 321.466 866.059 319.534 865 317M243 321C244.457 319.897 244.897 319.457 246 318C243.876 318.899 243.899 318.876 243 321M569 318L570 319L569 318z"/>
<path style="fill:#f8fbfc; stroke:none;" d="M663 318C664.365 322.746 667.195 324.464 672 325L663 318z"/>
<path style="fill:#f6cc07; stroke:none;" d="M307 319L308 320L307 319M754 319L755 320L754 319M219 320L220 321L219 320M399 320L400 321L399 320M564 320L565 321L564 320M306 321L307 322L306 321M624 321C627.357 325.766 631.782 329.577 635.572 334C642.843 342.487 649.349 351.468 655.189 361C657.814 365.285 660.938 374.79 666 376C665.313 382.941 670.417 389.744 672.995 396C674.204 398.931 674.734 402.557 678 403C677.612 406.289 677.153 410.477 681 411L680 415C682.897 415 681.035 417.473 681.667 420C682.797 424.521 684.253 429.851 686 434C692.877 429.451 698.944 423.657 705 418.086C707.554 415.736 711.513 413.379 712.763 409.985C714.664 404.827 709.312 395.886 707.667 391C702.733 376.339 696.645 361.469 689 348C686.293 343.232 684.306 337.123 679.895 333.638C676.229 330.742 671.316 329.417 667 327.811C653.258 322.699 638.584 321 624 321M666 321L667 322L666 321M694 321L695 322L694 321M775 321L776 322L775 321M559 322L560 323L559 322M667 322L668 323L667 322M217 323L218 324L217 323M305 323L306 324L305 323M557 323L558 324L557 323M760 323L761 324L760 323M396 324L397 325L396 324M672 324L673 325L672 324M304 325L305 326L304 325M771 325L772 326L771 325M697 326L698 327L697 326M303 327L304 328L303 327M394 327L395 328L394 327M545 329L546 330L545 329M213 330L214 331L213 330M392 330L393 331L392 330M543 330L544 331L543 330M700 331L701 332L700 331M212 332L213 333L212 332M301 332L302 333L301 332M390 333L391 334L390 333M538 333L539 334L538 333M701 333L702 334L701 333M211 334L212 335L211 334M300 334L301 335L300 334M865 335L865 342C866.059 339.466 866.059 337.534 865 335M299 337L300 338L299 337M531 337L532 338L531 337M795 337L794 340C795.766 339.021 795.955 338.778 795 337M387 338L388 339L387 338M704 338L705 339L704 338M298 339L299 340L298 339M705 340L706 341L705 340M385 341L386 342L385 341M793 341L794 342L793 341M297 342L298 343L297 342M523 342L524 343L523 342M794 342L795 343L794 342M233 344L234 345L233 344M520 344L521 345L520 344M792 344L793 345L792 344z"/>
<path style="fill:#f8fbfc; stroke:none;" d="M232 345C219.494 366.953 206.42 387.883 204.965 414C204.545 421.529 203.338 427.695 206 435C208.94 429.511 208.894 422.968 210.34 417C213.54 403.787 218.231 390.886 224.862 379C227.928 373.503 230.89 367.794 236 364C243.26 377.995 260.169 388.495 273 396.996C297.136 412.987 326.084 425.44 354 433.079C370.854 437.692 388.755 439.874 406 442.561C415.218 443.997 425.685 443.369 435 442.961C439.032 442.784 443.071 441.388 446.999 442.9C456.696 446.631 459.258 458.025 467 464C463.403 456.396 457.929 449.68 452.87 443C450.597 439.998 448.204 435.903 444.829 434.028C440.447 431.593 432.868 433 428 433C416.891 433 406 432.201 395 430.573C361.696 425.643 328.756 414.93 299 399.219C283.712 391.148 268.514 380.922 256 368.961C251.31 364.478 246.549 359.895 242.289 355C239.02 351.243 236.549 347.217 232 345z"/>
<path style="fill:#f6cc07; stroke:none;" d="M296 345L297 346L296 345M793 345L794 346L793 345M205 346L206 347L205 346M231 346L232 347L231 346M791 346L792 347L791 346M204 348L205 349L204 348M381 348L382 349L381 348M229 349L230 350L229 349M237 349L238 350L237 349M203 350L204 351L203 350M228 350L229 351L228 350M238 350L239 351L238 350M512 350L513 351L512 350M710 350L711 351L710 350M791 350L792 351L791 350M202 352L203 353L202 352M509 352L510 353L509 352M711 352L712 353L711 352M863.333 352.667C863.278 352.722 863.222 353.777 863.667 353.333C863.722 353.278 863.778 352.222 863.333 352.667M226 353L227 354L226 353M508 353L509 354L508 353M241 354L242 355L241 354M293 354L294 355L293 354M712 354L713 355L712 354M242 355L243 356L242 355M377 355L378 356L377 355M763 355L761 359C762.859 357.735 763.369 357.223 763 355M789 355L790 356L789 355M874 355C873.316 358.857 873.522 362.136 874 366C875.431 362.59 875.431 358.41 874 355M224 356L225 357L224 356M243 356L244 357L243 356M713 356L714 357L713 356M200 357L201 358L200 357M244 357L245 358L244 357M292 357L293 358L292 357M376 357L377 358L376 357M503 357L504 358L503 357M788 357L789 358L788 357M862.333 357.667C862.278 357.722 862.222 358.778 862.667 358.333C862.722 358.278 862.778 357.222 862.333 357.667M223 358L224 359L223 358M502 358L503 359L502 358M199 359L200 360L199 359M375 359L376 360L375 359M760 359L761 360L760 359M291 360L292 361L291 360M784 360L785 361L784 360M221 361L222 362L221 361M374 361L375 362L374 361M715 361L716 362L715 361M198 362L199 363L198 362M758 362L759 363L758 362z"/>
<path style="fill:#06285a; stroke:none;" d="M873 362C866.436 395.826 847.578 426.811 825.753 453C786.34 500.292 735.164 536.5 682 566.85C573.765 628.637 457.251 685.971 334 709.612C265.509 722.749 194.745 726.084 128 702.308C117.062 698.411 105.999 693.464 96 687.548C88.4196 683.063 81.6209 677.342 74 673C81.0016 685.079 95.1878 693.11 107 699.85C138.231 717.668 173.518 727.042 209 731.286C237.393 734.681 265.562 734.584 294 731.83C306.155 730.653 319.891 725.983 332 726.679C338.872 727.074 346.443 731.707 353 733.806C368.276 738.694 384.125 743.274 400 745.725C472.536 756.924 547.738 745.098 610 704.655C643.773 682.717 674.598 653.66 695.55 619C703.162 606.408 710.372 593.613 715.989 580C718.829 573.117 720.881 561.787 726.394 556.634C731.203 552.139 738.407 549.06 744 545.576C754.023 539.334 763.7 532.625 773 525.338C808.02 497.9 838.519 464.12 858.244 424C864.691 410.886 868.492 397.113 871.996 383C873.51 376.903 875.494 367.944 873 362z"/>
<path style="fill:#f6cc07; stroke:none;" d="M220 363L221 364L220 363M373 363L374 364L373 363M716 363L717 364L716 363M759 363L760 364L759 363M497 526C490.682 502.854 478.488 478.421 463.514 459.961C459.106 454.527 456.306 447.427 449.961 443.863C443.768 440.384 435.769 442.997 429 443C415.274 443.005 402.539 441.857 389 439.586C353.373 433.612 319.777 422.757 288 405.306C268.882 394.806 249.345 381.515 236 364C230.489 366.709 227.772 372.784 224.862 378C217.701 390.837 212.094 405.482 209.587 420C208.71 425.081 205.905 431.998 207.862 437C210.065 442.631 215.835 447.781 220.004 452C230.3 462.42 241.735 471.635 254 479.656C312.392 517.844 387.845 533.989 457 530.961C470.477 530.37 483.684 527.793 497 526M290 364L291 365L290 364M197 365L198 366L197 365M219 365L220 366L219 365M372 365L373 366L372 365M494 365L495 366L494 365M781 365L782 366L781 365M493 366L494 367L493 366M757 366L758 367L757 366M860 366L861 367L860 366M196 367L197 368L196 367M218 367L219 368L218 367M371 367L372 368L371 367M492 367L493 368L492 367M754 367L755 368L754 367M491 368L492 369L491 368M718 368L719 369L718 368M753 368L754 369L753 368M779 368L780 369L779 368M217 369L218 370L217 369M256 369L257 370L256 369M755 369L756 370L755 369M859 369L860 370L859 369M195 370L196 371L195 370M257 370L258 371L257 370M216 371L217 372L216 371M258 371L259 372L258 371M777 371L778 372L777 371M781 371L782 372L781 371M259 372L260 373L259 372M753 372L754 373L753 372M776 372L777 373L776 372M858 372L859 373L858 372M194 373L195 374L194 373M720 373L721 374L720 373M780 373L781 374L780 373M368 374L369 375L368 374M263 375L264 376L263 375M747 375L748 376L747 375M774 375L775 376L774 375M857 375L858 376L857 375M193 376L194 377L193 376M214 376L215 377L214 376M264 376L265 377L264 376M367 376L368 377L367 376z"/>
<path style="fill:#f8fbfc; stroke:none;" d="M665.333 376.667C665.278 376.722 665.222 377.778 665.667 377.333C665.722 377.278 665.778 376.222 665.333 376.667z"/>
<path style="fill:#f6cc07; stroke:none;" d="M721 376L722 377L721 376M746 376L747 377L746 376M750 376L751 377L750 376M778 376L779 377L778 376M745 377L746 378L745 377M213 378L214 379L213 378M722 378L723 379L722 378M856 378L857 379L856 378M192 379L193 380L192 379M268 379L269 380L268 379M480 379L481 380L480 379M771 379L772 380L771 379M269 380L270 381L269 380M479 380L480 381L479 380M747 380L748 381L747 380M212 381L213 382L212 381M365 381L366 382L365 381M478 381L479 382L478 381M723 381L724 382L723 381M775 381L776 382L775 381M191 382L192 383L191 382M272 382L273 383L272 382M477 382L478 383L477 382M273 383L274 384L273 383M364 383L365 384L364 383M476 383L477 384L476 383M768 383L769 384L768 383M854 383L855 384L854 383M211 384L212 385L211 384M475 384L476 385L475 384M724 384L725 385L724 384M767 384L768 385L767 384M773 384L774 385L773 384M871 384L871 387C871.696 385.446 871.696 385.554 871 384M190 385L191 386L190 385M276 385L277 386L276 385M474 385L475 386L474 385M743 385L744 386L743 385M363 386L364 387L363 386M210 387L211 388L210 387M279 387L280 388L279 387M725 387L726 388L725 387M771 387L772 388L771 387M735 388L736 389L735 388M852 388L853 389L852 388M189 389L190 390L189 389M282 389L283 390L282 389M734 389L735 390L734 389M209 390L210 391L209 390M726 390L727 391L726 390M733 390L734 391L733 390M762 390L763 391L762 390M851 390L852 391L851 390M285 391L286 392L285 391M361 391L362 392L361 391M732 391L733 392L732 391M738 391L739 392L738 391M761 391L762 392L761 391M768 391L769 392L768 391M468 392L469 393L468 392M731 392L732 393L731 392M737 392L738 393L737 392M850 392L851 393L850 392M188 393L189 394L188 393M208 393L209 394L208 393M467 393L468 394L467 393M730 393L731 394L730 393M736 393L737 394L736 393M290 394L291 395L290 394M360 394L361 395L360 394M727 394L728 395L727 394M729 394L730 395L729 394z"/>
<path style="fill:#06285a; stroke:none;" d="M156 395C144.191 404.519 132.217 413.765 121 424C111.422 432.74 102.01 441.618 93.0394 451C60.5002 485.029 30.2195 534.621 46.3333 583C50.4188 595.266 57.2231 608.388 68 616C61.8966 605.286 55.7149 596.28 52.8873 584C39.9647 527.878 76.3277 480.652 111.285 441C120.577 430.46 130.386 419.648 141 410.424C145.433 406.572 154.563 400.755 156 395z"/>
<path style="fill:#f6cc07; stroke:none;" d="M292 395L293 396L292 395M728 395L729 396L728 395M765 395L766 396L765 395M154 396L155 397L154 396M207.333 396.667C207.278 396.722 207.222 397.778 207.667 397.333C207.722 397.278 207.778 396.222 207.333 396.667M187 397L188 398L187 397M295 397L296 398L295 397M297 398L298 399L297 398M463 398L464 399L463 398M299 399L300 400L299 399M462 399L463 400L462 399M149 400L150 401L149 400M151 400L152 401L151 400M301 400L302 401L301 400M761 400L762 401L761 400M150 401L151 402L150 401M186.333 401.667C186.278 401.722 186.222 402.778 186.667 402.333C186.722 402.278 186.778 401.222 186.333 401.667M303 401L304 402L303 401M358 401L359 402L358 401M760 401L761 402L760 401M206.333 402.667C206.278 402.722 206.222 403.778 206.667 403.333C206.722 403.278 206.778 402.222 206.333 402.667M305 402L306 403L305 402M845 402L846 403L845 402M145 403L146 404L145 403M307 403L308 404L307 403z"/>
<path style="fill:#f8fbfc; stroke:none;" d="M677 403L677 406C677.696 404.446 677.696 404.554 677 403z"/>
<path style="fill:#f6cc07; stroke:none;" d="M309 404L310 405L309 404M357 404L358 405L357 404M458 404L459 405L458 404M844 404L845 405L844 404M185.333 405.667C185.278 405.722 185.222 406.778 185.667 406.333C185.722 406.278 185.778 405.222 185.333 405.667M311 405L312 406L311 405M725 405L726 406L725 405M313 406L314 407L313 406M724 406L725 407L724 406M843 406L844 407L843 406M140 407L141 408L140 407M315 407L316 408L315 407M723 407L724 408L723 407M755 407L756 408L755 407M318 408L319 409L318 408M455 408L456 409L455 408M722 408L723 409L722 408M754 408L755 409L754 408M320 409L321 410L320 409M721 409L722 410L721 409M140 410L141 411L140 410M720 410L721 411L720 410M139 411L140 412L139 411M325 411L326 412L325 411M366 411L367 412L366 411z"/>
<path style="fill:#f8fbfc; stroke:none;" d="M680 411L680 414C680.696 412.446 680.696 412.554 680 411z"/>
<path style="fill:#f6cc07; stroke:none;" d="M719 411L720 412L719 411M840 411L841 412L840 411M134 412L135 413L134 412M138 412L139 413L138 412M327 412L328 413L327 412M452 412L453 413L452 412M718 412L719 413L718 412M133 413L134 414L133 413M137 413L138 414L137 413M330 413L331 414L330 413M717 413L718 414L717 413M739 413L740 414L739 413M136 414L137 415L136 414M204 414L204 419C204.83 416.969 204.83 416.03 204 414M333 414L334 415L333 414M378.667 414.333C378.222 414.778 379.278 414.722 379.333 414.667C379.778 414.222 378.722 414.278 378.667 414.333z"/>
<path style="fill:#f8fbfc; stroke:none;" d="M681 414L681 417C681.696 415.446 681.696 415.554 681 414z"/>
<path style="fill:#f6cc07; stroke:none;" d="M716 414L717 415L716 414M738 414L739 415L738 414M135 415L136 416L135 415M336 415L337 416L336 415M382.667 415.333C382.222 415.778 383.278 415.722 383.333 415.667C383.778 415.222 382.722 415.278 382.667 415.333M134 416L135 417L134 416M157 416L158 417L157 416M338 416L339 417L338 416M387.667 416.333C387.222 416.778 388.278 416.722 388.333 416.667C388.778 416.222 387.722 416.278 387.667 416.333M449 416L450 417L449 416M837 416L838 417L837 416M133 417L134 418L133 417M341 417L342 418L341 417M392.667 417.333C392.222 417.778 393.278 417.722 393.333 417.667C393.778 417.222 392.722 417.278 392.667 417.333M127 418L128 419L127 418M132 418L133 419L132 418M183.333 418.667C183.278 418.722 183.222 419.778 183.667 419.333C183.722 419.278 183.778 418.222 183.333 418.667M344 418L345 419L344 418M399.667 418.333C399.222 418.778 400.278 418.722 400.333 418.667C400.778 418.222 399.722 418.278 399.667 418.333M126 419L127 420L126 419M347.667 419.333C347.222 419.778 348.278 419.722 348.333 419.667C348.778 419.222 347.722 419.278 347.667 419.333M408.667 419.333C408.222 419.778 409.278 419.722 409.333 419.667C409.778 419.222 408.722 419.278 408.667 419.333M835 419L836 420L835 419M152 420L153 421L152 420M351 420L352 421L351 420M418 420C420.613 421.098 423.165 420.993 426 421C423.387 419.902 420.836 420.007 418 420M731 420L732 421L731 420M129 421L130 422L129 421M354 421L355 422L354 421M730 421L731 422L730 421M128 422L129 423L128 422M357.667 422.333C357.222 422.778 358.278 422.722 358.333 422.667C358.778 422.222 357.722 422.278 357.667 422.333M833 422L834 423L833 422M127 423L128 424L127 423M148 423L149 424L148 423M152 423L153 424L152 423M361.667 423.333C361.222 423.778 362.278 423.722 362.333 423.667C362.778 423.222 361.722 423.278 361.667 423.333M706 423L707 424L706 423M120 424L121 425L120 424M126 424L127 425L126 424M147 424L148 425L147 424M151 424L152 425L151 424M365.667 424.333C365.222 424.778 366.278 424.722 366.333 424.667C366.778 424.222 365.722 424.278 365.667 424.333M705 424L706 425L705 424M726 424L727 425L726 424M119 425L120 426L119 425M125 425L126 426L125 425M146 425L147 426L146 425M182 425L182 428C182.696 426.446 182.696 426.554 182 425M369.667 425.333C369.222 425.778 370.278 425.722 370.333 425.667C370.778 425.222 369.722 425.278 369.667 425.333M725 425L726 426L725 425M118 426L119 427L118 426M124 426L125 427L124 426M373 426C374.248 426.685 374.548 426.749 376 427C374.752 426.315 374.452 426.251 373 426M117 427L118 428L117 427M123 427L124 428L123 427M378.667 427.333C378.222 427.778 379.278 427.722 379.333 427.667C379.778 427.222 378.722 427.278 378.667 427.333M122 428L123 429L122 428M383.667 428.333C383.222 428.778 384.278 428.722 384.333 428.667C384.778 428.222 383.722 428.278 383.667 428.333M721 428L722 429L721 428M147 429L148 430L147 429M388 429C389.248 429.685 389.548 429.749 391 430C389.752 429.315 389.452 429.251 388 429M828 429L829 430L828 429M394 430C395.248 430.685 395.549 430.749 397 431C395.752 430.315 395.452 430.251 394 430M698 430L699 431L698 430M732 430L733 431L732 430M204 431L205 432L204 431M402 431C403.506 431.683 404.315 431.826 406 432C404.494 431.317 403.685 431.174 402 431M697 431L698 432L697 431M717 431L718 432L717 431M731 431L732 432L731 431M411 432C413.332 432.985 415.457 432.981 418 433C415.668 432.015 413.543 432.019 411 432M730 432L731 433L730 432M137 433L138 434L137 433M144 433L145 434L144 433M205 433L206 434L205 433M825 433L826 434L825 433M136 434L137 435L136 434M181 434L181 438C181.71 436.24 181.71 435.759 181 434M713 434L714 435L713 434M108 435L109 436L108 435M135 435L136 436L135 435M692 435L693 436L692 435M107 436L108 437L107 436M134 436L135 437L134 436M447 436L448 437L447 436M691 436L692 437L691 436M106 437L107 438L106 437M114 437L115 438L114 437M133 437L134 438L133 437M141 437L142 438L141 437M448 437L449 438L448 437M724 437L725 438L724 437M822 437L823 438L822 437M105 438L106 439L105 438M113 438L114 439L113 438M723 438L724 439L723 438M821 438L822 439L821 438M104 439L105 440L104 439M112 439L113 440L112 439M687 439L688 440L687 439M706 439L707 440L706 439M103 440L104 441L103 440M111 440L112 441L111 440M686 440L687 441L686 440M102 441L103 442L102 441M110 441L111 442L110 441M138 441L139 442L138 441M451 441L452 442L451 441M703 441L704 442L703 441M719 441L720 442L719 441M101 442L102 443L101 442M452 442L453 443L452 442M718 442L719 443L718 442M818 442L819 443L818 442M100 443L101 444L100 443M127 443L128 444L127 443M682 443L683 444L682 443M700 443L701 444L700 443M817 443L818 444L817 443M99 444L100 445L99 444M126 444L127 445L126 444M136 444L137 445L136 444M98 445L99 446L98 445M125 445L126 446L125 445M454 445L455 446L454 445M697 445L698 446L697 445M97 446L98 447L97 446M124 446L125 447L124 446M455 446L456 447L455 446M713 446L714 447L713 446z"/>
<path style="fill:#f8fbfc; stroke:none;" d="M203 447C203 470.774 202.908 494.031 210.025 517C212.662 525.509 215.849 534.49 220.699 542C234.037 562.654 256.405 576.956 278 587.753C284.524 591.015 291.233 593.691 298 596.4C301.484 597.794 305.226 599.968 309 600.325C327.585 602.084 347.631 598.918 366 596.271C414.522 589.279 460.423 574.677 506 557C504.595 552.012 503.735 540.201 499.273 537.067C497.235 535.636 494.162 536.885 492 537.339C486.742 538.443 481.351 539.529 476 540C454.875 541.858 433.183 542.846 412 540.83C354.785 535.385 294.98 519.686 247 486.971C237.782 480.686 228.946 473.847 221 465.996C214.839 459.909 209.424 452.701 203 447z"/>
<path style="fill:#f6cc07; stroke:none;" d="M677 447L678 448L677 447M694 447L695 448L694 447M104 448L105 449L104 448M103 449L104 450L103 449M133 449L134 450L133 449M205 449L206 450L205 449M457 449L458 450L457 449M674 449L675 450L674 449M691 449L692 450L691 449M180 450L180 457C181.059 454.466 181.059 452.534 180 450M202 450L202 467C203.883 462.513 203.883 454.486 202 450M458 450L459 451L458 450M708 450L709 451L708 450M131 452L132 453L131 452M151 452L152 453L151 452M670 452L671 453L670 452M686 452L687 453L686 452M809 452L810 453L809 452M149 453L150 454L149 453M208 453L209 454L208 453M460 453L461 454L460 453M704 453L705 454L704 453M808 453L809 454L808 453M99 454L100 455L99 454M130 454L131 455L130 454M150 454L151 455L150 454M209 454L210 455L209 454M461 454L462 455L461 454M210 455L211 456L210 455M666 455L667 456L666 455M681 455L682 456L681 455M88 456L89 457L88 456M147 456L148 457L147 456M149 456L150 457L149 456M462 456L463 457L462 456M700 456L701 457L700 456M87 457L88 458L87 457M128 457L129 458L128 457M463 457L464 458L463 457M699 457L700 458L699 457M146 458L147 459L146 458M662 458L663 459L662 458M676 458L677 459L676 458M112 459L113 460L112 459M127 459L128 460L127 459M148 459L149 460L148 459M464 459L465 460L464 459M674 459L675 460L674 459M94 460L95 461L94 460M659 460L660 461L659 460M695 460L696 461L695 460M723 461L724 462L723 461M147 462L148 463L147 462M466 462L467 463L466 462M82 463L83 464L82 463M143 463L144 464L143 463M655 463L656 464L655 463M667 463L668 464L667 463M691 463L692 464L691 463M81 464L82 465L81 464M108 464L109 465L108 464M665 464L666 465L665 464M90 465L91 466L90 465M142 465L143 466L142 465M146 465L147 466L146 465M652 465L653 466L652 465M687 466L688 467L687 466M141 467L142 468L141 467M649 467L650 468L649 467M78 468L79 469L78 468M145 468L146 469L145 468M684 468L685 469L684 468M77 469L78 470L77 469M87 469L88 470L87 469M104 469L105 470L104 469M140 469L141 470L140 469M224 469L225 470L224 469M646 469L647 470L646 469M225 470L226 471L225 470M654 470L655 471L654 470M681 470L682 471L681 470M121 471L122 472L121 471M226 471L227 472L226 471M643 471L644 472L643 471M652 471L653 472L652 471M650 472L651 473L650 472M74 473L75 474L74 473M84 473L85 474L84 473M101 473L102 474L101 473M120 473L121 474L120 473M640 473L641 474L640 473M648 473L649 474L648 473M677 473L678 474L677 473M138 474L139 475L138 474M646 474L647 475L646 474M143 475L143 478C143.696 476.446 143.696 476.554 143 475M637 475L638 476L637 475M644 475L645 476L644 475M674 475L675 476L674 475M72 476L73 477L72 476M99 476L100 477L99 476M181 476L181 480C181.71 478.24 181.71 477.76 181 476M232 476L233 477L232 476M642 476L643 477L642 476M785 476L786 477L785 476M81 477L82 478L81 477M233 477L234 478L233 477M634 477L635 478L634 477M671 477L672 478L671 477M784 477L785 478L784 477M118 478L119 479L118 478M136 479L137 480L136 479M631 479L632 480L631 479M668 479L669 480L668 479M69 480L70 481L69 480M96 480L97 481L96 480M237 480L238 481L237 480M78 481L79 482L78 481M117 481L118 482L117 481M142.333 481.667C142.278 481.722 142.222 482.778 142.667 482.333C142.722 482.278 142.778 481.222 142.333 481.667M203.333 481.667C203.278 481.722 203.222 482.778 203.667 482.333C203.722 482.278 203.778 481.222 203.333 481.667M665 481L666 482L665 481M135 482L136 483L135 482M240 482L241 483L240 482M626 482C626.545 483.635 626.365 483.455 628 484C627.455 482.365 627.635 482.545 626 482z"/>
<path style="fill:#f8fbfc; stroke:none;" d="M624 485L627 484C625.234 483.599 625.443 483.711 624 485z"/>
<path style="fill:#f6cc07; stroke:none;" d="M662 483L663 484L662 483M777 483L778 484L777 483M66 484L67 485L66 484M76 484L77 485L76 484M623.333 484.667C623.278 484.722 623.222 485.778 623.667 485.333C623.722 485.278 623.778 484.222 623.333 484.667M625 484L626 485L625 484M692 484L693 485L692 484M776 484L777 485L776 484M816 484L817 485L816 484M134 485L135 486L134 485M244 485L245 486L244 485M621 485L620 487L622 487C622 485.147 622.3 485.65 621 485z"/>
<path style="fill:#f8fbfc; stroke:none;" d="M622 485L623 486L622 485z"/>
<path style="fill:#f6cc07; stroke:none;" d="M92 486L93 487L92 486M115.333 486.667C115.278 486.722 115.222 487.778 115.667 487.333C115.722 487.278 115.778 486.222 115.333 486.667M689 486L690 487L689 486M64 487L65 488L64 487M74 487L75 488L74 487M182.333 487.667C182.278 487.722 182.222 488.778 182.667 488.333C182.722 488.278 182.778 487.222 182.333 487.667M247 487L248 488L247 487M618.667 487.333C618.222 487.778 619.278 487.722 619.333 487.667C619.778 487.222 618.722 487.278 618.667 487.333M133 488L134 489L133 488M654 488L655 489L654 488M686 488L687 489L686 488M63 489L64 490L63 489M90 489L91 490L90 489M250 489L251 490L250 489M770 489L771 490L770 489M72 490L73 491L72 490M651 490L652 491L651 490M89 491L90 492L89 491M71 492L72 493L71 492M132 492L133 493L132 492M141 492L141 501C142.256 498.006 142.256 494.994 141 492M255 492L256 493L255 492M648 492L649 493L648 492M765 493L766 494L765 493M60 494L61 495L60 494M87 494L88 495L87 494M183.333 494.667C183.278 494.722 183.222 495.778 183.667 495.333C183.722 495.278 183.778 494.222 183.333 494.667M258 494L259 495L258 494M645 494L646 495L645 494M69 495L70 496L69 495M131.333 495.667C131.278 495.722 131.222 496.778 131.667 496.333C131.722 496.278 131.778 495.222 131.333 495.667M260 495L261 496L260 495M59 496L60 497L59 496M68 497L69 498L68 497M640 497L641 498L640 497M760 497L761 498L760 497M112.333 498.667C112.278 498.722 112.222 499.778 112.667 499.333C112.722 499.278 112.778 498.222 112.333 498.667M638 498L639 499L638 498M84 499L85 500L84 499M267 499L268 500L267 499M66 500L67 501L66 500M184 500L184 503C184.696 501.446 184.696 501.554 184 500M269 500L270 501L269 500M756 500L757 501L756 500M56 501L57 502L56 501M83 501L84 502L83 501M130.333 501.667C130.278 501.722 130.222 502.778 130.667 502.333C130.722 502.278 130.778 501.222 130.333 501.667M271 501L272 502L271 501M633 501L634 502L633 501M65 502L66 503L65 502M273 502L274 503L273 502M776 502L777 503L776 502M55 503L56 504L55 503M206 503L207 504L206 503M275 503L276 504L275 503M630 503L631 504L630 503M663 503L664 504L663 503M752 503L753 504L752 503M64 504L65 505L64 504M111 504L111 509C111.83 506.97 111.83 506.03 111 504M277 504L278 505L277 504M628 504L629 505L628 504M54 505L55 506L54 505M279 505L280 506L279 505M63 506L64 507L63 506M281 506L282 507L281 506M748 506L749 507L748 506M53 507L54 508L53 507M142 507L142 510C142.696 508.446 142.696 508.554 142 507M185 507L186 508L185 507M207 507L208 508L207 507M283 507L284 508L283 507M623 507L624 508L623 507M770 507L771 508L770 507M62 508L63 509L62 508M655 508L656 509L655 508M129 509L129 514C129.83 511.969 129.83 511.03 129 509M744 509L745 510L744 509M61 510L62 511L61 510M290 510L291 511L290 510M618 510L619 511L618 510M790 510L791 511L790 510M186 511L187 512L186 511M208 511L209 512L208 511M292 511L293 512L292 511M616 511L617 512L616 511M650 511L651 512L650 511M765 511L766 512L765 511M60 512L61 513L60 512M143 512L143 515C143.696 513.446 143.696 513.554 143 512M614 512L615 513L614 512M740 512L741 513L740 512M77 513L78 514L77 513M297 513L298 514L297 513M50 514L51 515L50 514M59 514L60 515L59 514M299 514L300 515L299 514M737 514L738 515L737 514M761 514L762 515L761 514M76 515L77 516L76 515M187 515L188 516L187 515M209 515L210 516L209 515M223 515C228.729 548.292 259.591 573.041 288 587.247C295.528 591.011 303.601 596.209 312 597.671C321.978 599.408 333.04 597.118 343 596.17C351.553 595.355 360.63 595.993 369 594L369 592C357.423 588.578 343.988 588.933 332 586.338C302.551 579.962 273.185 568.125 250 548.561C243.262 542.875 236.806 536.261 231.774 529C228.633 524.467 226.541 519.23 223 515M302 515L303 516L302 515M643 515L644 516L643 515M49 516L50 517L49 516M305 516L306 517L305 516M58 517L59 518L58 517M75 517L76 518L75 517M307 517L308 518L307 517M605 517L606 518L605 517M144 518L145 519L144 518M210 518L211 519L210 518M310 518L311 519L310 518M603 518L604 519L603 518M756 518L757 519L756 518M57 519L58 520L57 519M188 519L189 520L188 519M601 519L602 520L601 519M636 519L637 520L636 519M730 519L731 520L730 519M778 520L779 521L778 520M47 521L48 522L47 521M145 521L146 522L145 521M211 521L212 522L211 521M318 521L319 522L318 521M727 521L728 522L727 521M56 522L57 523L56 522M321 522L322 523L321 522M631 522L632 523L631 522M129.333 523.667C129.278 523.722 129.222 524.778 129.667 524.333C129.722 524.278 129.778 523.222 129.333 523.667M189 523L190 524L189 523M324 523L325 524L324 523M629 523L630 524L629 523M724 523L725 524L724 523M46 524L47 525L46 524M212 524L213 525L212 524M748 524L749 525L748 524M55 525L56 526L55 525M72 525L73 526L72 525M111.333 525.667C111.278 525.722 111.222 526.778 111.667 526.333C111.722 526.278 111.778 525.222 111.333 525.667M331 525L332 526L331 525M721 525L722 526L721 525M772 525L773 526L772 525M147 526L148 527L147 526M190 526L191 527L190 526M213 526L214 527L213 526M588 526L589 527L588 526M338 527L339 528L338 527M586 527L587 528L586 527M622 527L623 528L622 527M718 527L719 528L718 527M45 528L46 529L45 528M71 528L72 529L71 528M148 528L149 529L148 528M341.667 528.333C341.222 528.778 342.278 528.722 342.333 528.667C342.778 528.222 341.722 528.278 341.667 528.333M584 528L585 529L584 528M620 528L621 529L620 528M768 528L769 529L768 528M54 529L55 530L54 529M191 529L192 530L191 529M214 529L215 530L214 529M346 529L347 530L346 529M582 529L583 530L582 529M715 529L716 530L715 529M130 530L131 531L130 530M350 530L351 531L350 530M580 530L581 531L580 530M44 531L45 532L44 531M70 531L71 532L70 531M215 531L216 532L215 531M355 531L356 532L355 531M578 531L579 532L578 531M738 531L739 532L738 531M53 532L54 533L53 532M359 532L360 533L359 532M69 534L70 535L69 534M131 534L132 535L131 534M368 534L369 535L368 534M609 534L610 535L609 534M707 534L708 535L707 534M372 535C373.248 535.685 373.548 535.749 375 536C373.752 535.315 373.452 535.251 372 535M607 535L608 536L607 535M732 535L733 536L732 535M152 536L153 537L152 536M500.333 536.667C500.278 536.722 500.222 537.778 500.667 537.333C500.722 537.278 500.778 536.222 500.333 536.667M605 536L606 537L605 536M704 536L705 537L704 536M757 536L758 537L757 536M603 537L604 538L603 537M702 537L703 538L702 537M729 537L730 538L729 537M153 538L154 539L153 538M194 538L195 539L194 538M400 539C401.769 539.779 403.036 539.912 405 540C403.231 539.221 401.964 539.088 400 539M479.667 539.333C479.222 539.778 480.278 539.722 480.333 539.667C480.778 539.222 479.722 539.278 479.667 539.333M699 539L700 540L699 539M42.3333 540.667C42.2777 540.722 42.2223 541.778 42.6667 541.333C42.7223 541.278 42.7778 540.222 42.3333 540.667M133 540L134 541L133 540M409 540C411.332 540.984 413.457 540.981 416 541C413.668 540.016 411.543 540.019 409 540M467 540C468.769 540.779 470.036 540.912 472 541C470.231 540.221 468.964 540.088 467 540M501.333 540.667C501.278 540.722 501.222 541.778 501.667 541.333C501.722 541.278 501.778 540.222 501.333 540.667M559 540L560 541L559 540M155 541L156 542L155 541M195 541L196 542L195 541M220 541L221 542L220 541M444 541C447.697 542.552 452.017 542 456 542C452.303 540.448 447.983 541 444 541M557 541L558 542L557 541M696 541L697 542L696 541M723 541L724 542L723 541M555 542L556 543L555 542M748 542L749 543L748 542M720 543L721 544L720 543M222 544L223 545L222 544M691 544L692 545L691 544M745 544L746 545L745 544M158 545L159 546L158 545M548 545L549 546L548 545M717 545L718 546L717 545M116 546L117 547L116 546M197 546L198 547L197 546M546 546L547 547L546 546M583 547L584 548L583 547M686 547L687 548L686 547M740 547L741 548L740 547M41 548L41 560C42.5124 556.396 42.5124 551.604 41 548M225 548L226 549L225 548M541 548L542 549L541 548M581 548L582 549L581 548M34.3333 549.667C34.2778 549.722 34.2223 550.778 34.6667 550.333C34.7223 550.278 34.7778 549.222 34.3333 549.667M66.3333 549.667C66.2777 549.722 66.2223 550.778 66.6667 550.333C66.7221 550.278 66.7779 549.222 66.3333 549.667M117 549L118 550L117 549M226 549L227 550L226 549M539 549L540 550L539 549M579 549L580 550L579 549M737 549L738 550L737 549M50 550L50 563C51.5909 559.209 51.5909 553.791 50 550M138 550L139 551L138 550M537 550L538 551L537 550M577 550L578 551L577 550M681 550L682 551L681 550M709 550L710 551L709 550M199 551L200 552L199 551M575 551L576 552L575 551M532 552L533 553L532 552M573 552L574 553L573 552M706 552L707 553L706 552M732 552L733 553L732 552M140 553L141 554L140 553M165 553L166 554L165 553M530 553L531 554L530 553M571 553L572 554L571 553M166 554L167 555L166 554M200 554L201 555L200 554M527 554L528 555L527 554M569 554L570 555L569 554M674 554L675 555L674 554M167 555L168 556L167 555M525 555L526 556L525 555M567 555L568 556L567 555M672 555L673 556L672 555M701 555L702 556L701 555M727 555L728 556L727 555M32.3333 556.667C32.2778 556.722 32.2222 557.778 32.6667 557.333C32.7223 557.278 32.7778 556.222 32.3333 556.667M168 556L169 557L168 556M201 556L202 557L201 556M725 556L726 557L725 556M520 557L521 558L520 557M698 557L699 558L698 557M144 558L145 559L144 558M518 558L519 559L518 558M667 558L668 559L667 558M122 559L123 560L122 559M145 559L146 560L145 559M499 559L500 560L499 559M515 559L516 560L515 559M558 559L559 560L558 559M665 559L666 560L665 559M556 560L557 561L556 560M723 560L724 561L723 560M174 561L175 562L174 561M494 561L495 562L494 561M510 561L511 562L510 561M691 561L692 562L691 561M239 562L240 563L239 562M507 562L508 563L507 562M660 562L661 563L660 562M204 563L205 564L204 563M240 563L241 564L240 563M549 563L550 564L549 563M658 563L659 564L658 563M722 563L723 564L722 563M125 564L126 565L125 564M241 564L242 565L241 564M486 564L487 565L486 564M502 564L503 565L502 564M547 564L548 565L547 564M656 564L657 565L656 564M686 564L687 565L686 564M151 565L152 566L151 565M205 565L206 566L205 565M684 565L685 566L684 565M152 566L153 567L152 566M181 566L182 567L181 566M481 566L482 567L481 566M497 566L498 567L497 566M721 566L722 567L721 566M127 567L128 568L127 567M153 567L154 568L153 567M206 567L207 568L206 567M245 567L246 568L245 567M478 567L479 568L478 567M494 567L495 568L494 567M540 567L541 568L540 567M30 568L30 572C30.7102 570.241 30.7102 569.76 30 568M42 568L43 569L42 568M184 568L185 569L184 568M449 573C454.197 575.16 459.499 572.793 464 570C458.447 567.075 453.924 570.099 449 573M491 568L492 569L491 568M649 568L650 569L649 568M679 568L680 569L679 568M720 568L721 569L720 568M207 569L208 570L207 569M647 569L648 570L647 569M677 569L678 570L677 569M187 570L188 571L187 570M249 570L250 571L249 570M486 570L487 571L486 570M645 570L646 571L645 570M158 571L159 572L158 571M189 571L190 572L189 571M467 571L468 572L467 571M483 571L484 572L483 571M531 571L532 572L531 571M643 571L644 572L643 571M719 571L720 572L719 571M43.3333 572.667C43.2778 572.722 43.2222 573.778 43.6667 573.333C43.7222 573.278 43.7778 572.222 43.3333 572.667M131 572L132 573L131 572M252 572L253 573L252 572M480 572L481 573L480 572M672 572L673 573L672 572M132 573L133 574L132 573M253 573L254 574L253 573M461 573L462 574L461 573M477 573L478 574L477 573M526 573L527 574L526 573M670 573L671 574L670 573M718 573L719 574L718 573M133 574L134 575L133 574M162 574L163 575L162 574M458 574L459 575L458 574M256 575L257 576L256 575M455 575L456 576L455 575M521 575L522 576L521 575M165 576L166 577L165 576M452 576L453 577L452 576M469 576L470 577L469 576M44 577L45 578L44 577M68.3333 577.667C68.2777 577.722 68.2222 578.778 68.6667 578.333C68.7221 578.278 68.7778 577.222 68.3333 577.667M448 577L449 578L448 577M516 577L517 578L516 577M632 577L633 578L632 577M168 578L169 579L168 578M203 578L204 579L203 578M261 578L262 579L261 578M445 578L446 579L445 578M630 578L631 579L630 578M691 578C679.489 586.22 665.952 592.924 653 598.576C646.716 601.318 635.414 604.499 630.843 609.649C628.28 612.537 627.575 617.444 626.308 621C623.537 628.779 620.339 636.566 616.742 644C607.739 662.606 595.281 677.943 584 695C594.04 691.822 603.591 684.075 612 677.884C636.243 660.036 656.332 638.015 673 613C678.138 605.29 682.936 597.223 687.216 589C688.949 585.672 691.435 581.765 691 578M716 578L717 579L716 578M205 579L206 580L205 579M212 579L213 580L212 579M442 579L443 580L442 579M459 579L460 580L459 579M511 579L512 580L511 579M628 579L629 580L628 579M659 579L660 580L659 579M45 580L46 581L45 580M171 580L172 581L171 580M208 580L209 581L208 580M439 580L440 581L439 580M626 580L627 581L626 580M657 580L658 581L657 580M52.3333 581.667C52.2778 581.722 52.2222 582.778 52.6667 582.333C52.7222 582.278 52.7778 581.222 52.3333 581.667M140 581L141 582L140 581M210 581L211 582L210 581M213.333 581.667C213.278 581.722 213.222 582.778 213.667 582.333C213.722 582.278 213.778 581.222 213.333 581.667M266 581L267 582L266 581M435 581L436 582L435 581M624 581L625 582L624 581M655 581L656 582L655 581M30.3333 582.667C30.2778 582.722 30.2222 583.778 30.6667 583.333C30.7223 583.278 30.7778 582.222 30.3333 582.667M69 582L70 583L69 582M141 582L142 583L141 582M268 582L269 583L268 582M432 582L433 583L432 582M450 582L451 583L450 582M503 582L504 583L503 582M622 582L623 583L622 582M46 583L47 584L46 583M142 583L143 584L142 583M176 583L177 584L176 583M428 583L429 584L428 583M447 583L448 584L447 583M620 583L621 584L620 583M714 583L715 584L714 583M178 584L179 585L178 584M424 584L425 585L424 584M444 584L445 585L444 584M498 584L499 585L498 584M70 585L71 586L70 585M180 585L181 586L180 585M273 585L274 586L273 585M420 585L421 586L420 585M440 585L441 586L440 585M616 585L617 586L616 585M648 585L649 586L648 585M713 585L714 586L713 585M47 586L48 587L47 586M53 586L54 587L53 586M275 586L276 587L275 586M416.667 586.333C416.222 586.778 417.278 586.722 417.333 586.667C417.778 586.222 416.722 586.278 416.667 586.333M437 586L438 587L437 586M646 586L647 587L646 586M277 587L278 588L277 587M433 587L434 588L433 587M612 587L613 588L612 587M644 587L645 588L644 587M279 588L280 589L279 588M407.667 588.333C407.222 588.778 408.278 588.722 408.333 588.667C408.778 588.222 407.722 588.278 407.667 588.333M430 588L431 589L430 588M487 588L488 589L487 588M610 588L611 589L610 588M642 588L643 589L642 588M31.3333 589.667C31.2778 589.722 31.2222 590.778 31.6667 590.333C31.7223 590.278 31.7777 589.222 31.3333 589.667M188 589L189 590L188 589M281 589L282 590L281 589M403.667 589.333C403.222 589.778 404.278 589.722 404.333 589.667C404.778 589.222 403.722 589.278 403.667 589.333M426 589L427 590L426 589M484 589L485 590L484 589M54 590L55 591L54 590M72 590L73 591L72 590M190 590L191 591L190 590M283 590L284 591L283 590M399.667 590.333C399.222 590.778 400.278 590.722 400.333 590.667C400.778 590.222 399.722 590.278 399.667 590.333M423 590L424 591L423 590M481 590L482 591L481 590M39 591L40 592L39 591M49 591L50 592L49 591M394 591C395.248 591.685 395.549 591.749 397 592C395.752 591.315 395.452 591.251 394 591M419 591L420 592L419 591M604 591L605 592L604 591M73 592L74 593L73 592M154 592L155 593L154 592M195 592L196 593L195 592M288 592L289 593L288 592M389.667 592.333C389.222 592.778 390.278 592.722 390.333 592.667C390.778 592.222 389.722 592.278 389.667 592.333M602 592L603 593L602 592M50 593L51 594L50 593M55 593L56 594L55 593M156 593L157 594L156 593M290 593L291 594L290 593M384 593C385.248 593.685 385.548 593.749 387 594C385.752 593.315 385.452 593.251 384 593M473 593L474 594L473 593M600 593L601 594L600 593M74 594L75 595L74 594M200 594L201 595L200 594M293 594L294 595L293 594M378 594C379.248 594.685 379.548 594.749 381 595C379.752 594.315 379.452 594.251 378 594M407 594L408 595L407 594M470 594L471 595L470 594M598 594L599 595L598 594M51 595L52 596L51 595M159 595L160 596L159 595M203 595L204 596L203 595M295 595L296 596L295 595M371 595C372.248 595.685 372.548 595.749 374 596C372.752 595.315 372.452 595.251 371 595M403 595L404 596L403 595M596 595L597 596L596 595M75 596L76 597L75 596M161 596L162 597L161 596M206 596L207 597L206 596M298 596L299 597L298 596M364 596C365.248 596.685 365.548 596.749 367 597C365.752 596.315 365.452 596.251 364 596M399 596L400 597L399 596M594 596L595 597L594 596M163 597L164 598L163 597M209 597L210 598L209 597M300 597L301 598L300 597M357 597C358.506 597.683 359.315 597.826 361 598C359.494 597.317 358.685 597.174 357 597M395 597L396 598L395 597M460 597L461 598L460 597M592 597L593 598L592 597M57 598L58 599L57 598M212 598L213 599L212 598M303 598L304 599L303 598M349 598C350.248 598.685 350.549 598.749 352 599C350.752 598.315 350.452 598.251 349 598M390 598L391 599L390 598M457 598L458 599L457 598M590 598L591 599L590 598M623 598L624 599L623 598M43 599L44 600L43 599M215 599L216 600L215 599M305 599L306 600L305 599M338 599C339.248 599.685 339.548 599.749 341 600C339.752 599.315 339.452 599.251 338 599M454 599L455 600L454 599M588 599L589 600L588 599M621 599L622 600L621 599M706 599L707 600L706 599M54 600L55 601L54 600M58 600L59 601L58 600M168 600L169 601L168 600M219 600L220 601L219 600M310 600C313.959 601.661 318.737 601 323 601C319.041 599.339 314.263 600 310 600M380.667 600.333C380.222 600.778 381.278 600.722 381.333 600.667C381.778 600.222 380.722 600.278 380.667 600.333M586 600L587 601L586 600M619 600L620 601L619 600M44 601L45 602L44 601M78 601L79 602L78 601M170 601L171 602L170 601M223 601L224 602L223 601M705 601L706 602L705 601M59 602L60 603L59 602M172 602L173 603L172 602M227 602L228 603L227 602M56 603L57 604L56 603M231 603L232 604L231 603M363.667 603.333C363.222 603.778 364.278 603.722 364.333 603.667C364.778 603.222 363.722 603.278 363.667 603.333M704 603L705 604L704 603M60 604L61 605L60 604M80 604L81 605L80 604M235.667 604.333C235.222 604.778 236.278 604.722 236.333 604.667C236.778 604.222 235.722 604.278 235.667 604.333M357.667 604.333C357.222 604.778 358.278 604.722 358.333 604.667C358.778 604.222 357.722 604.278 357.667 604.333M179 605L180 606L179 605M242 605L243 606L242 605M351.667 605.333C351.222 605.778 352.278 605.722 352.333 605.667C352.778 605.222 351.722 605.278 351.667 605.333M433.667 605.333C433.222 605.778 434.278 605.722 434.333 605.667C434.778 605.222 433.722 605.278 433.667 605.333M61 606L62 607L61 606M181 606L182 607L181 606M246 606C247.248 606.685 247.548 606.749 249 607C247.752 606.315 247.452 606.251 246 606M344.667 606.333C344.222 606.778 345.278 606.722 345.333 606.667C345.778 606.222 344.722 606.278 344.667 606.333M573 606L574 607L573 606M608 606L609 607L608 606M48 607L49 608L48 607M59 607L60 608L59 607M82 607L83 608L82 607M335.667 607.333C335.222 607.778 336.278 607.722 336.333 607.667C336.778 607.222 335.722 607.278 335.667 607.333M426.667 607.333C426.222 607.778 427.278 607.722 427.333 607.667C427.778 607.222 426.722 607.278 426.667 607.333M571 607L572 608L571 607M606 607L607 608L606 607M186 608L187 609L186 608M263.667 608.333C263.222 608.778 264.278 608.722 264.333 608.667C264.778 608.222 263.722 608.278 263.667 608.333M324 608C325.506 608.683 326.315 608.826 328 609C326.494 608.317 325.685 608.174 324 608M423.667 608.333C423.222 608.778 424.278 608.722 424.333 608.667C424.778 608.222 423.722 608.278 423.667 608.333M569 608L570 609L569 608M604 608L605 609L604 608M701 608L702 609L701 608M275 609C277.052 609.874 278.747 609.953 281 610C278.948 609.126 277.253 609.047 275 609M310 609C312.052 609.874 313.747 609.953 316 610C313.948 609.126 312.253 609.047 310 609M567 609L568 610L567 609M602 609L603 610L602 609M191 610L192 611L191 610M600 610L601 611L600 610M194 611L195 612L194 611M410.667 611.333C410.222 611.778 411.278 611.722 411.333 611.667C411.778 611.222 410.722 611.278 410.667 611.333M86 612L87 613L86 612M197 612L198 613L197 612M406 612C407.248 612.685 407.548 612.749 409 613C407.752 612.315 407.452 612.251 406 612M66 613L67 614L66 613M558 613L559 614L558 613M698 613L699 614L698 613M54 614L55 615L54 614M397.667 614.333C397.222 614.778 398.278 614.722 398.333 614.667C398.778 614.222 397.722 614.278 397.667 614.333M556 614L557 615L556 614M38 615L39 616L38 615M206.667 615.333C206.222 615.778 207.278 615.722 207.333 615.667C207.778 615.222 206.722 615.278 206.667 615.333M393.667 615.333C393.222 615.778 394.278 615.722 394.333 615.667C394.778 615.222 393.722 615.278 393.667 615.333M554 615L555 616L554 615M697 615L698 616L697 615M68 616L69 617L68 616M39 617L40 618L39 617M218.667 618.333C218.222 618.778 219.278 618.722 219.333 618.667C219.778 618.222 218.722 618.278 218.667 618.333M222.667 619.333C222.222 619.778 223.278 619.722 223.333 619.667C223.778 619.222 222.722 619.278 222.667 619.333M373 619C374.248 619.685 374.548 619.749 376 620C374.752 619.315 374.452 619.251 373 619M545 619L546 620L545 619M583 619L584 620L583 619M367.667 620.333C367.222 620.778 368.278 620.722 368.333 620.667C368.778 620.222 367.722 620.278 367.667 620.333M543 620L544 621L543 620M694 620L695 621L694 620M360.667 621.333C360.222 621.778 361.278 621.722 361.333 621.667C361.778 621.222 360.722 621.278 360.667 621.333M240.667 622.333C240.222 622.778 241.278 622.722 241.333 622.667C241.778 622.222 240.722 622.278 240.667 622.333M354.667 622.333C354.222 622.778 355.278 622.722 355.333 622.667C355.778 622.222 354.722 622.278 354.667 622.333M97 623L98 624L97 623M344 623C345.248 623.685 345.548 623.749 347 624C345.752 623.315 345.452 623.251 344 623M536 623L537 624L536 623M692 623L693 624L692 623M43 624L44 625L43 624M98 624L99 625L98 624M254.667 624.333C254.222 624.778 255.278 624.722 255.333 624.667C255.778 624.222 254.722 624.278 254.667 624.333M337.667 624.333C337.222 624.778 338.278 624.722 338.333 624.667C338.778 624.222 337.722 624.278 337.667 624.333M534 624L535 625L534 624M264 625C265.248 625.685 265.548 625.749 267 626C265.752 625.315 265.452 625.251 264 625M323 625C324.506 625.683 325.315 625.826 327 626C325.494 625.317 324.685 625.174 323 625M532 625L533 626L532 625M67 626L68 627L67 626M282 626C287.959 628.5 296.564 627 303 627C297.041 624.5 288.436 626 282 626M305 626C306.248 626.685 306.548 626.749 308 627C306.752 626.315 306.452 626.251 305 626M690 626L691 627L690 626M45 627L46 628L45 627M527 627L528 628L527 627M689 627L690 628L689 627M103 628L104 629L103 628M525 628L526 629L525 628M523 629L524 630L523 629M560 630L561 631L560 630M687 630L688 631L687 630M48 631L49 632L48 631M107 631L108 632L107 631M518 631L519 632L518 631M558 631L559 632L558 631M76 632L77 633L76 632M516 632L517 633L516 632M556 632L557 633L556 632M110 633L111 634L110 633M554 633L555 634L554 633M685 633L686 634L685 633M511 634L512 635L511 634M552 634L553 635L552 634M51 635L52 636L51 635M113 635L114 636L113 635M504 637L505 638L504 637M545 637L546 638L545 637M682 637L683 638L682 637M118 638L119 639L118 638M502 638L503 639L502 638M543 638L544 639L543 638z"/>
<path style="fill:#f8fbfc; stroke:none;" d="M180 639C178.872 642.339 177.599 645.522 177 649L163 650C165.833 652.979 171.079 655.438 172.802 659.184C173.953 661.685 173.053 665.32 173 668C176.166 667.095 179.647 664.942 183 665.178C186.452 665.422 189.719 667.962 193 669C192.409 665.95 190.95 662.088 191.774 659C192.679 655.61 196.024 652.819 198 650C189.784 648.452 185.508 647.122 182 639L180 639M227 639C223.292 647.904 219.31 649.817 210 651C212.384 654.376 216.918 657.322 218.382 661.17C219.596 664.361 218.143 668.666 218 672C221.124 670.542 224.483 667.858 228 667.606C232.136 667.31 236.239 670.631 240 672C239.722 668.602 237.908 664.327 238.777 661C239.768 657.207 243.786 654.147 246 651C236.791 650.248 232.559 647.545 229 639L227 639z"/>
<path style="fill:#f6cc07; stroke:none;" d="M541 639L542 640L541 639M497 640L498 641L497 640M539 640L540 641L539 640M93 641L94 642L93 641M57 642L58 643L57 642M95 642L96 643L95 642M230 642L231 643L230 642M492 642L493 643L492 642M534 642L535 643L534 642M678 642L679 643L678 642M58 643L59 644L58 643M127 643L128 644L127 643M178 643L179 644L178 643M532 643L533 644L532 643M59 644L60 645L59 644M100 644L101 645L100 644M184 644L185 645L184 644M231 644L232 645L231 644M487 644L488 645L487 644M60 645L61 646L60 645M103 645L104 646L103 645M485 645L486 646L485 645M61 646L62 647L61 646M106 646L107 647L106 646M232 646L233 647L232 646M482 646L483 647L482 646M675 646L676 647L675 646M62 647L63 648L62 647M109 647L110 648L109 647M136 647L137 648L136 647M523 647L524 648L523 647M674 647L675 648L674 647M63 648L64 649L63 648M176 648L177 649L176 648M233 648L234 649L233 648M477 648L478 649L477 648M521 648L522 649L521 648M673 648L674 649L673 648z"/>
<path style="fill:#06285a; stroke:none;" d="M921 648C921 693.6 918.002 740.912 905.421 785C898.126 810.564 886.777 836.058 868.829 856C825.206 904.47 757.718 914.859 696 919.089C679.966 920.189 664.11 921 648 921C654.919 923.903 665.52 922 673 922L729 922L922 922L922 729L922 673C922 665.52 923.903 654.919 921 648z"/>
<path style="fill:#f6cc07; stroke:none;" d="M141 649L142 650L141 649M168.667 649.333C168.222 649.778 169.278 649.722 169.333 649.667C169.778 649.222 168.722 649.278 168.667 649.333M195 649C196.377 649.911 197.44 650.404 199 651C197.686 649.382 197.123 649.307 195 649M218.667 649.333C218.222 649.778 219.278 649.722 219.333 649.667C219.778 649.222 218.722 649.278 218.667 649.333M119.667 650.333C119.222 650.778 120.278 650.722 120.333 650.667C120.778 650.222 119.722 650.278 119.667 650.333M144 650L145 651L144 650M212.667 650.333C212.222 650.778 213.278 650.722 213.333 650.667C213.778 650.222 212.722 650.278 212.667 650.333M241.667 650.333C241.222 650.778 242.278 650.722 242.333 650.667C242.778 650.222 241.722 650.278 241.667 650.333M472 650L473 651L472 650M124.667 651.333C124.222 651.778 125.278 651.722 125.333 651.667C125.778 651.222 124.722 651.278 124.667 651.333M147 651L148 652L147 651M164 651L165 652L164 651M209 651L210 652L209 651M514 651L515 652L514 651M151 652L152 653L151 652M165 652L166 653L165 652M210 652L211 653L210 652M467 652L468 653L467 652M512 652L513 653L512 652M69 653L70 654L69 653M154 653L155 654L154 653M464 653L465 654L464 653M462 654L463 655L462 654M507 654L508 655L507 654M668 654L669 655L668 654M162 655C162.98 656.783 162.908 656.594 165 657C163.861 655.985 163.388 655.691 162 655M169 655L170 656L169 655M459 655L460 656L459 655M505 655L506 656L505 655M667 655L668 656L667 655M456 656L457 657L456 656M74 657L75 658L74 657M172 657L173 658L172 657M500 657L501 658L500 657M451 658L452 659L451 658M498 658L499 659L498 658M218 659L219 660L218 659M495 659L496 660L495 659M191.333 660.667C191.278 660.722 191.222 661.778 191.667 661.333C191.722 661.278 191.778 660.222 191.333 660.667M445 660L446 661L445 660M493 660L494 661L493 660M442 661L443 662L442 661M490 661L491 662L490 661M81 662L82 663L81 662M238.333 662.667C238.278 662.722 238.222 663.778 238.667 663.333C238.722 663.278 238.778 662.222 238.333 662.667M439 662L440 663L439 662M488 662L489 663L488 662M436 663L437 664L436 663M183 664L184 665L183 664M433 664L434 665L433 664M483 664L484 665L483 664M179 665L180 666L179 665M185 665L186 666L185 665M192.333 665.667C192.278 665.722 192.222 666.778 192.667 666.333C192.722 666.278 192.778 665.222 192.333 665.667M218.333 665.667C218.278 665.722 218.222 666.778 218.667 666.333C218.722 666.278 218.778 665.222 218.333 665.667M430 665L431 666L430 665M177 666L178 667L177 666M187 666L188 667L187 666M427 666L428 667L427 666M478 666L479 667L478 666M89 667L90 668L89 667M175 667L176 668L175 667M226 667L227 668L226 667M230 667L231 668L230 667M424 667L425 668L424 667M475 667L476 668L475 667M91 668L92 669L91 668M172.667 668.333C172.222 668.778 173.278 668.722 173.333 668.667C173.778 668.222 172.722 668.278 172.667 668.333M224 668L225 669L224 668M232 668L233 669L232 668M421 668L422 669L421 668M473 668L474 669L473 668M222 669L223 670L222 669M234 669L235 670L234 669M470 669L471 670L470 669M236 670L237 671L236 670M415 670L416 671L415 670M217.333 671.667C217.278 671.722 217.222 672.778 217.667 672.333C217.722 672.278 217.778 671.222 217.333 671.667M465 671L466 672L465 671M462 672L463 673L462 672M100 673L101 674L100 673M405 673L406 674L405 673M459 673L460 674L459 673M376 715C392.556 723.867 415.852 722 434 722C441.401 722 450.116 723.028 457 719.725C474.803 711.183 489.597 690.782 497 673C482.369 677.213 468.275 684.914 454 690.343C428.51 700.038 402.393 708.154 376 715M74 674L75 675L74 674M76 674L77 675L76 674M102 674L103 675L102 674M75 675L76 676L75 675M398 675L399 676L398 675M454 675L455 676L454 675M647 675L648 676L647 675M394 676L395 677L394 676M451 676L452 677L451 676M646 676L647 677L646 676M80 677L81 678L80 677M391 677L392 678L391 677M448 677L449 678L448 677M645 677L646 678L645 677M445 678L446 679L445 678M644 678L645 679L644 678M113 679L114 680L113 679M84 680L85 681L84 680M380 680L381 681L380 680M440 680L441 681L440 680M81 681L82 682L81 681M118 681L119 682L118 681M376 681L377 682L376 681M437 681L438 682L437 681M82 682L83 683L82 682M87 682L88 683L87 682M372 682L373 683L372 682M434 682L435 683L434 682M83 683L84 684L83 683M123 683L124 684L123 683M368 683L369 684L368 683M431 683L432 684L431 683M638 683L639 684L638 683M126 684L127 685L126 684M364 684L365 685L364 684M428 684L429 685L428 684M637 684L638 685L637 684M92 685L93 686L92 685M425 685L426 686L425 685M422 686L423 687L422 686M95 687L96 688L95 687M135 687L136 688L135 687M419 687L420 688L419 687M633 687L634 688L633 687M89 688L90 689L89 688M97 688L98 689L97 688M138 688L139 689L138 688M416 688L417 689L416 688M632 688L633 689L632 688M99 689L100 690L99 689M412 689L413 690L412 689M101 690L102 691L101 690M145 690L146 691L145 690M409 690L410 691L409 690M103 691L104 692L103 691M149 691L150 692L149 691M406 691L407 692L406 691M628 691L629 692L628 691M105 692L106 693L105 692M96 693L97 694L96 693M107 693L108 694L107 693M156 693C157.248 693.685 157.549 693.749 159 694C157.752 693.315 157.452 693.251 156 693M320.667 693.333C320.222 693.778 321.278 693.722 321.333 693.667C321.778 693.222 320.722 693.278 320.667 693.333M399 693L400 694L399 693M109 694L110 695L109 694M161.667 694.333C161.222 694.778 162.278 694.722 162.333 694.667C162.778 694.222 161.722 694.278 161.667 694.333M314.667 694.333C314.222 694.778 315.278 694.722 315.333 694.667C315.778 694.222 314.722 694.278 314.667 694.333M396 694L397 695L396 694M111 695L112 696L111 695M166.667 695.333C166.222 695.778 167.278 695.722 167.333 695.667C167.778 695.222 166.722 695.278 166.667 695.333M308.667 695.333C308.222 695.778 309.278 695.722 309.333 695.667C309.778 695.222 308.722 695.278 308.667 695.333M393 695L394 696L393 695M101 696L102 697L101 696M113 696L114 697L113 696M300.667 696.333C300.222 696.778 301.278 696.722 301.333 696.667C301.778 696.222 300.722 696.278 300.667 696.333M389 696L390 697L389 696M621 696L622 697L621 696M292.667 697.333C292.222 697.778 293.278 697.722 293.333 697.667C293.778 697.222 292.722 697.278 292.667 697.333M386 697L387 698L386 697M118 698L119 699L118 698M187.667 698.333C187.222 698.778 188.278 698.722 188.333 698.667C188.778 698.222 187.722 698.278 187.667 698.333M282 698C283.248 698.685 283.548 698.749 285 699C283.752 698.315 283.452 698.251 282 698M382 698L383 699L382 698M106 699L107 700L106 699M120 699L121 700L120 699M195.667 699.333C195.222 699.778 196.278 699.722 196.333 699.667C196.778 699.222 195.722 699.278 195.667 699.333M269.667 699.333C269.222 699.778 270.278 699.722 270.333 699.667C270.778 699.222 269.722 699.278 269.667 699.333M378 699L379 700L378 699M108 700L109 701L108 700M123 700L124 701L123 700M207 700C209.052 700.874 210.747 700.953 213 701C210.948 700.126 209.253 700.047 207 700M256 700C257.769 700.779 259.036 700.912 261 701C259.231 700.221 257.964 700.088 256 700M374 700L375 701L374 700M125 701L126 702L125 701M371 701L372 702L371 701M614 701L615 702L614 701M128 702L129 703L128 702M366 702L367 703L366 702M113 703L114 704L113 703M131 703L132 704L131 703M362 703L363 704L362 703M611 703L612 704L611 703M115 704L116 705L115 704M134 704L135 705L134 704M358 704L359 705L358 704M117 705L118 706L117 705M137 705L138 706L137 705M354 705L355 706L354 705M608 705L609 706L608 705M140 706L141 707L140 706M349.667 706.333C349.222 706.778 350.278 706.722 350.333 706.667C350.778 706.222 349.722 706.278 349.667 706.333M345 707L346 708L345 707M147 708L148 709L147 708M339.667 708.333C339.222 708.778 340.278 708.722 340.333 708.667C340.778 708.222 339.722 708.278 339.667 708.333M603 708L604 709L603 708M126 709L127 710L126 709M601 709L602 710L601 709M128 710L129 711L128 710M130 711L131 712L130 711M324 711C325.248 711.685 325.548 711.749 327 712C325.752 711.315 325.452 711.251 324 711M598 711L599 712L598 711M162 712L163 713L162 712M319.667 712.333C319.222 712.778 320.278 712.722 320.333 712.667C320.778 712.222 319.722 712.278 319.667 712.333M596 712L597 713L596 712M135 713L136 714L135 713M313 713L314 714L313 713M138 714L139 715L138 714M172.667 714.333C172.222 714.778 173.278 714.722 173.333 714.667C173.778 714.222 172.722 714.278 172.667 714.333M307.667 714.333C307.222 714.778 308.278 714.722 308.333 714.667C308.778 714.222 307.722 714.278 307.667 714.333M140 715L141 716L140 715M178.667 715.333C178.222 715.778 179.278 715.722 179.333 715.667C179.778 715.222 178.722 715.278 178.667 715.333M591 715L592 716L591 715M143 716L144 717L143 716M184.667 716.333C184.222 716.778 185.278 716.722 185.333 716.667C185.778 716.222 184.722 716.278 184.667 716.333M291.667 716.333C291.222 716.778 292.278 716.722 292.333 716.667C292.778 716.222 291.722 716.278 291.667 716.333M589 716L590 717L589 716M146 717L147 718L146 717M192.667 717.333C192.222 717.778 193.278 717.722 193.333 717.667C193.778 717.222 192.722 717.278 192.667 717.333M587 717L588 718L587 717M149 718L150 719L149 718M200 718C201.248 718.685 201.548 718.749 203 719C201.752 718.315 201.452 718.251 200 718M272 718C273.248 718.685 273.548 718.749 275 719C273.752 718.315 273.452 718.251 272 718M585 718L586 719L585 718M152 719L153 720L152 719M214 719C215.248 719.685 215.548 719.749 217 720C215.752 719.315 215.452 719.251 214 719M256 719C257.506 719.683 258.315 719.826 260 720C258.494 719.317 257.685 719.174 256 719M583 719L584 720L583 719M155 720L156 721L155 720M159 721L160 722L159 721M579 721L580 722L579 721M163 722L164 723L163 722M577 722L578 723L577 722M166 723L167 724L166 723M575 723L576 724L575 723M170 724L171 725L170 724M174 725L175 726L174 725M570 725L571 726L570 725M179 726L180 727L179 726M568 726L569 727L568 726M183.667 727.333C183.222 727.778 184.278 727.722 184.333 727.667C184.778 727.222 183.722 727.278 183.667 727.333M566 727L567 728L566 727M318.667 728.333C318.222 728.778 319.278 728.722 319.333 728.667C319.778 728.222 318.722 728.278 318.667 728.333M338 728L339 729L338 728M193.667 729.333C193.222 729.778 194.278 729.722 194.333 729.667C194.778 729.222 193.722 729.278 193.667 729.333M312.667 729.333C312.222 729.778 313.278 729.722 313.333 729.667C313.778 729.222 312.722 729.278 312.667 729.333M561 729L562 730L561 729M304.667 730.333C304.222 730.778 305.278 730.722 305.333 730.667C305.778 730.222 304.722 730.278 304.667 730.333M343 730L344 731L343 730M558 730L559 731L558 730M209.667 731.333C209.222 731.778 210.278 731.722 210.333 731.667C210.778 731.222 209.722 731.278 209.667 731.333M296 731C297.248 731.685 297.548 731.749 299 732C297.752 731.315 297.452 731.251 296 731M346 731L347 732L346 731M218 732C219.248 732.685 219.548 732.749 221 733C219.752 732.315 219.452 732.251 218 732M285 732C287.052 732.874 288.747 732.953 291 733C288.948 732.126 287.253 732.047 285 732M349 732L350 733L349 732M553 732L554 733L553 732M228 733C229.769 733.779 231.036 733.912 233 734C231.231 733.221 229.964 733.088 228 733M272 733C273.248 733.685 273.548 733.749 275 734C273.752 733.315 273.452 733.251 272 733M351 733L352 734L351 733M355 734L356 735L355 734M548 734L549 735L548 734M358 735L359 736L358 735M545 735L546 736L545 735M361 736L362 737L361 736M542 736L543 737L542 736M365 737L366 738L365 737M539 737L540 738L539 737M535 738L536 739L535 738M372 739L373 740L372 739M532 739L533 740L532 739M376 740L377 741L376 740M528 740L529 741L528 740M380 741L381 742L380 741M524 741L525 742L524 741M384 742L385 743L384 742M520 742L521 743L520 742M388 743L389 744L388 743M393 744L394 745L393 744M511 744L512 745L511 744M504.667 745.333C504.222 745.778 505.278 745.722 505.333 745.667C505.778 745.222 504.722 745.278 504.667 745.333M498.667 746.333C498.222 746.778 499.278 746.722 499.333 746.667C499.778 746.222 498.722 746.278 498.667 746.333M411.667 747.333C411.222 747.778 412.278 747.722 412.333 747.667C412.778 747.222 411.722 747.278 411.667 747.333M491.667 747.333C491.222 747.778 492.278 747.722 492.333 747.667C492.778 747.222 491.722 747.278 491.667 747.333M419.667 748.333C419.222 748.778 420.278 748.722 420.333 748.667C420.778 748.222 419.722 748.278 419.667 748.333M484.667 748.333C484.222 748.778 485.278 748.722 485.333 748.667C485.778 748.222 484.722 748.278 484.667 748.333M429 749C430.506 749.683 431.315 749.826 433 750C431.494 749.317 430.685 749.174 429 749M470 749C471.769 749.779 473.036 749.912 475 750C473.231 749.221 471.964 749.088 470 749z"/>
</svg>
